<svg xmlns="http://www.w3.org/2000/svg" viewBox="0 0 143.65 146.63">
  <title>cw-icon</title>
  <g id="Laag_2" data-name="Laag 2">
    <g id="Laag_10" data-name="Laag 10">
      <g>
        <path d="M72.81,56a17.21,17.21,0,0,1,12.55,5.41L99.05,47.73a36.66,36.66,0,1,0,0,51.17L85.36,85.21A17.3,17.3,0,1,1,72.81,56Z"/>
        <path d="M73.32,128.3a55,55,0,1,1,39-93.79l13-13a73.32,73.32,0,1,0,0,103.53l-13-13A54.81,54.81,0,0,1,73.32,128.3Z"/>
        <path d="M120.88,75l7.24-7.25,15.53-15.52A72.83,72.83,0,0,0,135.4,34.1L122,47.49,94.55,75,121,100.82,134.38,114A73,73,0,0,0,143,96.41l-15.2-14.78Z"/>
      </g>
    </g>
  </g>
</svg>
