<svg xmlns="http://www.w3.org/2000/svg" xmlns:xlink="http://www.w3.org/1999/xlink" viewBox="0 0 162.06 168.14">
  <defs>
    <style>
      .cls-1 {
        fill: none;
      }

      .cls-2 {
        isolation: isolate;
      }

      .cls-3 {
        opacity: 0.54;
      }

      .cls-4 {
        clip-path: url(#clip-path);
      }

      .cls-5 {
        fill: #fdcc68;
      }

      .cls-6 {
        fill: #210;
      }

      .cls-7 {
        fill: #efbfa5;
      }

      .cls-23, .cls-8 {
        mix-blend-mode: multiply;
      }

      .cls-9 {
        clip-path: url(#clip-path-2);
      }

      .cls-10 {
        fill: #dadada;
      }

      .cls-11 {
        fill: #cee4c3;
      }

      .cls-12 {
        fill: #523421;
      }

      .cls-13 {
        fill: #271504;
      }

      .cls-14 {
        fill: #d3a57d;
      }

      .cls-15 {
        fill: #fff;
      }

      .cls-16 {
        fill: #1e0e00;
      }

      .cls-17 {
        fill: #432918;
      }

      .cls-18 {
        fill: #669965;
      }

      .cls-19 {
        fill: #336733;
      }

      .cls-20 {
        fill: #1d1d1b;
      }

      .cls-21 {
        clip-path: url(#clip-path-3);
      }

      .cls-22 {
        fill: #c96;
      }

      .cls-23 {
        opacity: 0.71;
      }

      .cls-24 {
        clip-path: url(#clip-path-4);
      }

      .cls-25 {
        fill: #f5aeae;
      }

      .cls-26 {
        fill: #805250;
      }

      .cls-27 {
        clip-path: url(#clip-path-5);
      }

      .cls-28 {
        opacity: 0.2;
      }

      .cls-29 {
        clip-path: url(#clip-path-6);
      }

      .cls-30 {
        clip-path: url(#clip-path-7);
      }

      .cls-31 {
        clip-path: url(#clip-path-8);
      }

      .cls-32 {
        clip-path: url(#clip-path-9);
      }

      .cls-33 {
        clip-path: url(#clip-path-10);
      }

      .cls-34 {
        clip-path: url(#clip-path-11);
      }

      .cls-35 {
        clip-path: url(#clip-path-12);
      }

      .cls-36 {
        clip-path: url(#clip-path-13);
      }

      .cls-37 {
        clip-path: url(#clip-path-14);
      }

      .cls-38 {
        clip-path: url(#clip-path-15);
      }

      .cls-39 {
        clip-path: url(#clip-path-16);
      }

      .cls-40 {
        clip-path: url(#clip-path-17);
      }

      .cls-41 {
        clip-path: url(#clip-path-18);
      }

      .cls-42 {
        clip-path: url(#clip-path-19);
      }

      .cls-43 {
        clip-path: url(#clip-path-20);
      }

      .cls-44 {
        clip-path: url(#clip-path-21);
      }

      .cls-45 {
        clip-path: url(#clip-path-22);
      }

      .cls-46 {
        clip-path: url(#clip-path-23);
      }

      .cls-47 {
        clip-path: url(#clip-path-24);
      }

      .cls-48 {
        clip-path: url(#clip-path-25);
      }

      .cls-49 {
        clip-path: url(#clip-path-26);
      }

      .cls-50 {
        clip-path: url(#clip-path-27);
      }

      .cls-51 {
        clip-path: url(#clip-path-28);
      }

      .cls-52 {
        clip-path: url(#clip-path-29);
      }
    </style>
    <clipPath id="clip-path" transform="translate(0 0)">
      <rect class="cls-1" width="162.06" height="168.14"/>
    </clipPath>
    <clipPath id="clip-path-2" transform="translate(0 0)">
      <rect class="cls-1" x="71.4" y="91.19" width="26.18" height="11.72"/>
    </clipPath>
    <clipPath id="clip-path-3" transform="translate(0 0)">
      <rect class="cls-1" x="77.72" y="56.49" width="11.55" height="16.61"/>
    </clipPath>
    <clipPath id="clip-path-4" transform="translate(0 0)">
      <rect class="cls-1" x="75.11" y="80.7" width="15.83" height="2.73"/>
    </clipPath>
    <clipPath id="clip-path-5" transform="translate(0 0)">
      <rect class="cls-1" x="75.47" y="83.33" width="15.5" height="3.11"/>
    </clipPath>
    <clipPath id="clip-path-6" transform="translate(0 0)">
      <rect class="cls-1" x="83.68" y="62.93" width="0.82" height="0.79"/>
    </clipPath>
    <clipPath id="clip-path-7" transform="translate(0 0)">
      <rect class="cls-1" x="83.68" y="65.43" width="0.55" height="0.39"/>
    </clipPath>
    <clipPath id="clip-path-8" transform="translate(0 0)">
      <rect class="cls-1" x="81.03" y="61.47" width="0.82" height="0.79"/>
    </clipPath>
    <clipPath id="clip-path-9" transform="translate(0 0)">
      <rect class="cls-1" x="81.37" y="67.6" width="0.82" height="0.79"/>
    </clipPath>
    <clipPath id="clip-path-10" transform="translate(0 0)">
      <rect class="cls-1" x="84.63" y="68.8" width="0.69" height="0.68"/>
    </clipPath>
    <clipPath id="clip-path-11" transform="translate(0 0)">
      <rect class="cls-1" x="86.97" y="64.54" width="0.51" height="0.5"/>
    </clipPath>
    <clipPath id="clip-path-12" transform="translate(0 0)">
      <rect class="cls-1" x="88.68" y="62.54" width="0.51" height="0.51"/>
    </clipPath>
    <clipPath id="clip-path-13" transform="translate(0 0)">
      <rect class="cls-1" x="87.96" y="67.38" width="0.82" height="0.79"/>
    </clipPath>
    <clipPath id="clip-path-14" transform="translate(0 0)">
      <rect class="cls-1" x="77.89" y="65.04" width="0.82" height="0.79"/>
    </clipPath>
    <clipPath id="clip-path-15" transform="translate(0 0)">
      <rect class="cls-1" x="75.74" y="67.77" width="0.82" height="0.79"/>
    </clipPath>
    <clipPath id="clip-path-16" transform="translate(0 0)">
      <rect class="cls-1" x="75.91" y="62.79" width="0.54" height="0.53"/>
    </clipPath>
    <clipPath id="clip-path-17" transform="translate(0 0)">
      <rect class="cls-1" x="73.55" y="63.86" width="0.82" height="0.79"/>
    </clipPath>
    <clipPath id="clip-path-18" transform="translate(0 0)">
      <rect class="cls-1" x="72.73" y="67.77" width="0.82" height="0.79"/>
    </clipPath>
    <clipPath id="clip-path-19" transform="translate(0 0)">
      <rect class="cls-1" x="69.62" y="66.59" width="0.82" height="0.79"/>
    </clipPath>
    <clipPath id="clip-path-20" transform="translate(0 0)">
      <rect class="cls-1" x="68.42" y="70.02" width="0.48" height="0.59"/>
    </clipPath>
    <clipPath id="clip-path-21" transform="translate(0 0)">
      <rect class="cls-1" x="90.11" y="64.03" width="0.82" height="0.79"/>
    </clipPath>
    <clipPath id="clip-path-22" transform="translate(0 0)">
      <rect class="cls-1" x="90.11" y="68.3" width="0.82" height="0.79"/>
    </clipPath>
    <clipPath id="clip-path-23" transform="translate(0 0)">
      <rect class="cls-1" x="92.5" y="64.82" width="0.82" height="0.79"/>
    </clipPath>
    <clipPath id="clip-path-24" transform="translate(0 0)">
      <rect class="cls-1" x="93.16" y="68.38" width="0.57" height="0.57"/>
    </clipPath>
    <clipPath id="clip-path-25" transform="translate(0 0)">
      <rect class="cls-1" x="94.11" y="63.71" width="0.54" height="0.54"/>
    </clipPath>
    <clipPath id="clip-path-26" transform="translate(0 0)">
      <rect class="cls-1" x="70.72" y="64.12" width="0.53" height="0.53"/>
    </clipPath>
    <clipPath id="clip-path-27" transform="translate(0 0)">
      <rect class="cls-1" x="95.42" y="65.92" width="0.82" height="0.79"/>
    </clipPath>
    <clipPath id="clip-path-28" transform="translate(0 0)">
      <rect class="cls-1" x="82.34" y="63.86" width="0.52" height="0.52"/>
    </clipPath>
    <clipPath id="clip-path-29" transform="translate(0 0)">
      <rect class="cls-1" x="66.88" y="65.43" width="0.82" height="0.79"/>
    </clipPath>
  </defs>
  <title>suzie</title>
  <g class="cls-2">
    <g id="Laag_2" data-name="Laag 2">
      <g id="Laag_1-2" data-name="Laag 1">
        <g>
          <g class="cls-3">
            <g class="cls-4">
              <path class="cls-5" d="M162.06,84.07c0,46.43-36.28,84.07-81,84.07S0,130.5,0,84.07,36.28,0,81,0s81,37.64,81,84.07" transform="translate(0 0)"/>
            </g>
          </g>
          <g>
            <rect class="cls-6" x="49.15" y="88.53" width="23.64" height="24.93"/>
            <rect class="cls-6" x="93.4" y="86.91" width="18.42" height="24.93"/>
            <rect class="cls-7" x="71.4" y="91.19" width="26.18" height="15.25"/>
            <g class="cls-8">
              <g class="cls-9">
                <path class="cls-10" d="M78.72,102.89A23.34,23.34,0,0,0,90.27,99.3a21.65,21.65,0,0,0,6.33-6c.32-.46.66-1,1-1.54v-.54H71.4v11.42a54.37,54.37,0,0,0,7.32.28" transform="translate(0 0)"/>
              </g>
            </g>
            <path class="cls-7" d="M116.91,52.54c-.5-10.55-5-24.35-14-30.68a32.16,32.16,0,0,0-18.53-5.73H84a32.16,32.16,0,0,0-18.53,5.73c-8.9,6.3-13.52,20.22-14,30.68-1,24.32,16,41.87,24.19,45.74a17.61,17.61,0,0,0,10.53,1.88c3.53-.59,5.85-2.5,7.14-3.24,14.5-8.37,24.37-26.18,23.51-44.38" transform="translate(0 0)"/>
            <path class="cls-7" d="M113.69,58.73l-1.87,14.41c7.34,3.25,8.48-13.71,8.48-13.71-1.69-4.23-6.61-.7-6.61-.7" transform="translate(0 0)"/>
            <path class="cls-7" d="M49,59.43s1.15,17,8.49,13.71L55.59,58.73s-4.92-3.53-6.62.7" transform="translate(0 0)"/>
            <path class="cls-7" d="M71.3,105.28,39.81,115.1s-11,2-13.83,13.54L26.19,146l.69,0L84,149.61h.55l54.72-7q1.62-7,3.25-13.94a19.18,19.18,0,0,0-8-11.11,18.7,18.7,0,0,0-5.86-2.43l-31.49-9.82Z" transform="translate(0 0)"/>
            <path class="cls-11" d="M139.22,142.58a34.1,34.1,0,0,0,2.54-2.6,8.89,8.89,0,0,0,1.79-2.42c.43-1.19.11-2-.42-4.81-.18-1-.43-2.37-.66-4.11a19.18,19.18,0,0,0-8-11.11,18.7,18.7,0,0,0-5.86-2.43l-13.41-4.18S120.9,125.36,94.59,136c0,0-7.73,2.36-10.17,8.18l-.23.53-.16-.53C81.59,138.35,73.86,136,73.86,136c-26.31-10.63-20.65-25.07-20.65-25.07l-13.4,4.18s-11,2-13.83,13.54L26.19,146a79.06,79.06,0,0,0,113-3.38" transform="translate(0 0)"/>
            <path class="cls-12" d="M103.07,46.58c.54,2.34,1.09,5.12,1.55,8.28,0,0,.69,4.77.92,9.25.6,11.81-2.36,15.24-2.08,28.84.1,4.59.43,4.21.33,7.45-.3,9.1-3,12.13-4,19.39-.36,2.55-1.89,10.26,1.9,17.8a23,23,0,0,0,11.48,10.7c2.07.84,7.73,3.11,11.24.45,2-1.53,2.4-4,3.06-8.16a41.7,41.7,0,0,0,0-12.15c-.79-6.3-1.86-9.23-2.75-13.46-.45-2.12-1-5.25-1.19-20.21-.21-16.07.38-15.35,0-24.2A142.6,142.6,0,0,0,121,46.05a122.92,122.92,0,0,0-5.67-19.53" transform="translate(0 0)"/>
            <path class="cls-13" d="M64,28.12S89.09,15.21,98.37,41c0,0,3.75-39.45-34.38-12.91" transform="translate(0 0)"/>
            <path class="cls-12" d="M67.58,13.47s-3.9,10.62-2.11,13.64A42.09,42.09,0,0,0,61,35.27a67.11,67.11,0,0,0-2.71,8.87A48.17,48.17,0,0,1,52,57.36a2.11,2.11,0,0,0-.74,0,3.69,3.69,0,0,0-1.82,1.17,148.91,148.91,0,0,1-1.25-19c0-10.9,1.14-13.62,1.94-15.09,3.89-7.22,12.58-10,17.45-11" transform="translate(0 0)"/>
            <path class="cls-6" d="M53,73.49s2.11,23.23,18.19,30.07V95s-11-9.93-15.14-20.54a3.64,3.64,0,0,1-3.05-1" transform="translate(0 0)"/>
            <path class="cls-12" d="M57.9,47a37.78,37.78,0,0,0-2.32,10.62c-.45,6.44,1,10.22,3.12,21.65.55,3,1,6.11,2,12.37,2.09,13.56,3.13,20.35,3,24.24-.21,5.45-.7,15-7.15,23.72-1.83,2.47-5.27,7-11.55,9.28-1.59.56-9.76,3.47-14.81-.67a8.63,8.63,0,0,1-3.19-5.7c-.14-2.3,1.12-3.84,2.42-6,.38-.63,1.64-3.91,4.17-10.48,1.47-3.83,2.64-8.77,3.38-20.28,1-15.37-.44-16.65.31-30a134.07,134.07,0,0,1,3.2-24.49,117.54,117.54,0,0,1,8.9-24.94" transform="translate(0 0)"/>
            <path class="cls-12" d="M64,28.12a32,32,0,0,1,8.08-4.65c4.28-1.69,11.69-4.61,17.9-1.26,5.22,2.82,8,9.21,7.61,16.09,0,0,4.66,20.85,19.33,19.05a40.52,40.52,0,0,0,2.33-13.11A42.09,42.09,0,0,0,113,22.14,35.36,35.36,0,0,0,101.31,11.6,37.55,37.55,0,0,0,81.88,6.94a17.94,17.94,0,0,0-11.94,3.13C64.58,14,62.25,21.11,64,28.12" transform="translate(0 0)"/>
            <path class="cls-12" d="M76.49,48.29a20.76,20.76,0,0,0-5.13-2.41,21,21,0,0,0-8-.86s-3.1-.18-4.93,3.87a6.41,6.41,0,0,1,1.63-1.2A7.6,7.6,0,0,1,63.92,47a23.16,23.16,0,0,1,6.62,1.16,41.3,41.3,0,0,1,5.95,2.32c.07-.07.51-.55,0-2.15" transform="translate(0 0)"/>
            <path class="cls-12" d="M88.68,48.29a20.41,20.41,0,0,1,5.13-2.41,20.94,20.94,0,0,1,8-.86s3.11-.18,4.94,3.87a6.49,6.49,0,0,0-1.64-1.2,7.58,7.58,0,0,0-3.85-.73,23.27,23.27,0,0,0-6.62,1.16,41.25,41.25,0,0,0-5.94,2.32c-.08-.07-.51-.55,0-2.15" transform="translate(0 0)"/>
            <path class="cls-14" d="M103.64,56.6s-8.59-7.17-14.4.4a1.27,1.27,0,0,0-.12.93s-.72-1.31-.07-1.93c0,0,2.78-6.94,9.42-5.68a7.31,7.31,0,0,1,5.17,5.29v1" transform="translate(0 0)"/>
            <path class="cls-15" d="M89.59,56.39a10.44,10.44,0,0,1,1.56-1.93,7.56,7.56,0,0,1,6.24-2.1s2.81.08,5.21,4.75c0,0-3,3.27-11.68.67,0,0-1.11-.11-1.55.33-.07.07-.23-.13-.26-.19-.16-.28,0-.67.13-.92a4,4,0,0,1,.35-.61" transform="translate(0 0)"/>
            <path class="cls-16" d="M98.74,55.57c0,1.84-1.17,3.34-2.62,3.34s-2.62-1.5-2.62-3.34,1.18-3.33,2.62-3.33,2.62,1.49,2.62,3.33" transform="translate(0 0)"/>
            <path class="cls-17" d="M98.45,55.57c0,1.64-1,3-2.33,3s-2.33-1.33-2.33-3,1-3,2.33-3,2.33,1.34,2.33,3" transform="translate(0 0)"/>
            <path class="cls-18" d="M98,55.57a1.93,1.93,0,1,1-1.88-2.39A2.19,2.19,0,0,1,98,55.57" transform="translate(0 0)"/>
            <path class="cls-19" d="M96,58l-.18,0,.27-2.35h0l-.46,2.3-.19-.07.65-2.23-.82,2.14-.16-.12,1-2h0L95,57.46l-.15-.15,1.29-1.74h0L94.7,57.13,94.58,57l1.53-1.37-1.63,1.16a1.43,1.43,0,0,1-.08-.22l1.7-.94-1.77.71a1.55,1.55,0,0,1,0-.23l1.83-.49-1.86.25a1.93,1.93,0,0,1,0-.24h1.87l-1.86-.23,0-.24,1.82.47-1.77-.71a2,2,0,0,1,.07-.23l1.7.94-1.62-1.15a1.36,1.36,0,0,1,.1-.21l1.53,1.36h0L94.7,54l.13-.18,1.29,1.73h0L95,53.69l.16-.14,1,2h0l-.83-2.14a1.51,1.51,0,0,1,.18-.09l.65,2.23h0l-.47-2.3a1.89,1.89,0,0,1,.18-.06l.29,2.36h0Zm.19,0-.09-2.38L96,53.19h.19l-.08,2.38h0l.28,2.35-.19,0m.37-.07-.46-2.3h0l1,2a.91.91,0,0,1-.16.11l-.82-2.13h0l.65,2.23-.19.07m.68-.42-1.14-1.88,1.29,1.73-.15.15m.28-.33-1.41-1.55h0l1.53,1.36-.12.19m.22-.4-1.63-1.15h0l.27-2.36.18,0-.45,2.31h0l.64-2.23a.7.7,0,0,1,.17.09l-.81,2.14,1-2,.16.13-1.14,1.89h0l1.27-1.73a1.09,1.09,0,0,1,.13.17l-1.4,1.56h0l1.52-1.37a1.24,1.24,0,0,1,.1.2l-1.61,1.17,1.7-1,.06.23-1.76.72L98,55.08a1,1,0,0,1,0,.24l-1.85.25h0l1.81.47a2,2,0,0,1,0,.24l-1.77-.71,1.7.94a1.31,1.31,0,0,1-.08.21m.23-.92-1.85-.23,1.85,0h0v.24" transform="translate(0 0)"/>
            <path class="cls-20" d="M97.14,55.57a1,1,0,1,1-1-1.29,1.18,1.18,0,0,1,1,1.29" transform="translate(0 0)"/>
            <path class="cls-15" d="M97.44,54.28a.53.53,0,1,1-1,0,.53.53,0,1,1,1,0" transform="translate(0 0)"/>
            <path class="cls-15" d="M96.67,55.29a.29.29,0,0,1-.25.32.3.3,0,0,1-.26-.32.31.31,0,0,1,.26-.33c.14,0,.25.15.25.33" transform="translate(0 0)"/>
            <path d="M102.6,57.11S99.88,52.69,96.68,53c0,0-2.92-.64-7.09,3.35A8.59,8.59,0,0,1,95.4,52s4.68-1.25,8.24,4.63Z" transform="translate(0 0)"/>
            <path class="cls-14" d="M62.1,56.66s8.59-7.18,14.4.39a1.32,1.32,0,0,1,.13.93s.71-1.3.06-1.93c0,0-2.78-6.93-9.42-5.67,0,0-4.63,1.53-5.17,6.28h0" transform="translate(0 0)"/>
            <path class="cls-15" d="M76.15,56.45a10.08,10.08,0,0,0-1.55-1.93,7.63,7.63,0,0,0-6.25-2.11s-2.81.08-5.21,4.76c0,0,3,3.27,11.68.67,0,0,1.12-.11,1.55.33.07.07.23-.13.26-.19.16-.29,0-.67-.13-.93a4.48,4.48,0,0,0-.35-.6" transform="translate(0 0)"/>
            <path class="cls-16" d="M67,55.63C67,57.47,68.17,59,69.62,59s2.62-1.5,2.62-3.34-1.17-3.34-2.62-3.34S67,53.79,67,55.63" transform="translate(0 0)"/>
            <path class="cls-17" d="M67.29,55.63c0,1.64,1,3,2.33,3s2.33-1.33,2.33-3-1-3-2.33-3-2.33,1.33-2.33,3" transform="translate(0 0)"/>
            <path class="cls-18" d="M67.74,55.63a1.94,1.94,0,1,0,1.88-2.4,2.19,2.19,0,0,0-1.88,2.4" transform="translate(0 0)"/>
            <path class="cls-19" d="M69.62,55.63h0l.29-2.36.18,0-.47,2.31h0l.65-2.23.18.09-.83,2.14,1-2a1.07,1.07,0,0,1,.16.14l-1.15,1.88h0l1.28-1.73.14.18-1.42,1.55h0l1.53-1.36c0,.06.07.13.1.2l-1.62,1.16,1.71-.94.06.23-1.76.7,1.81-.47,0,.24-1.86.24H71.5a2.18,2.18,0,0,1,0,.25l-1.86-.25,1.83.49a1.89,1.89,0,0,1,0,.23l-1.76-.71,1.69.94a2,2,0,0,1-.08.22l-1.63-1.17L71.16,57l-.12.19-1.41-1.56h0l1.28,1.74-.14.15-1.14-1.89h0l1,2-.17.12-.82-2.15.65,2.24-.19.07-.46-2.31h0L69.9,58l-.19,0ZM69.33,58l.29-2.35h0l-.09-2.38h.19l-.1,2.38L69.52,58l-.19,0M69,57.87l.64-2.24h0l-.82,2.14a.61.61,0,0,1-.16-.12l1-2h0l-.46,2.3a1.27,1.27,0,0,1-.18-.06m-.64-.51,1.28-1.73h0l-1.14,1.89-.14-.16M68.08,57l1.52-1.37h0l-1.42,1.55a1.08,1.08,0,0,1-.11-.18m-.19-.43,1.7-.93-1.76.7a.86.86,0,0,1,0-.23l1.81-.48h0l-1.85-.25,0-.24,1.81.48-1.76-.72.06-.22,1.7.94L68,54.46a1.24,1.24,0,0,1,.1-.2l1.52,1.37h0L68.2,54.07c0-.07.09-.12.13-.18l1.28,1.74h0l-1.13-1.89c0-.05.1-.09.15-.14l1,2h0l-.81-2.15.18-.09.63,2.24-.45-2.31.18,0,.27,2.35h0L68,56.79a1.45,1.45,0,0,1-.09-.22m-.15-.94h1.85l-1.84.24a1.93,1.93,0,0,1,0-.24" transform="translate(0 0)"/>
            <path class="cls-20" d="M68.6,55.63a1,1,0,1,0,1-1.29,1.18,1.18,0,0,0-1,1.29" transform="translate(0 0)"/>
            <path class="cls-15" d="M68.31,54.34a.58.58,0,0,0,.51.64.66.66,0,1,0-.51-.64" transform="translate(0 0)"/>
            <path class="cls-15" d="M69.07,55.34c0,.18.12.33.25.33a.3.3,0,0,0,.26-.33.29.29,0,0,0-.26-.32.3.3,0,0,0-.25.32" transform="translate(0 0)"/>
            <path d="M63.14,57.17s2.72-4.42,5.92-4.07c0,0,2.92-.64,7.09,3.35A8.59,8.59,0,0,0,70.35,52s-4.69-1.26-8.25,4.63Z" transform="translate(0 0)"/>
            <g class="cls-8">
              <g class="cls-21">
                <path class="cls-10" d="M78.79,56.49a27.45,27.45,0,0,1-.32,12.61s-2.75,3.22,2.24,3.22A1.48,1.48,0,0,1,79.59,70a15.75,15.75,0,0,0-.8-13.47" transform="translate(0 0)"/>
                <path class="cls-10" d="M86.66,69.17s3.06,1.9,0,2.89c0,0,2.49,0,2.61-1.45,0,0-.23-1.57-2.61-1.44" transform="translate(0 0)"/>
                <path class="cls-10" d="M81.28,72.06a2.74,2.74,0,0,1,.94,0,2.92,2.92,0,0,1,.46.13,1.07,1.07,0,0,1,.42.25.76.76,0,0,0,.23.13.45.45,0,0,0,.18,0c.06,0,.14,0,.25-.06a1.23,1.23,0,0,0,.31-.14l.33-.15a1.61,1.61,0,0,1,.45-.17,2,2,0,0,1,.72,0l.24,0-.22.07a1.63,1.63,0,0,0-.48.17.46.46,0,0,0-.17.14,3.74,3.74,0,0,1-.29.25,1.89,1.89,0,0,1-1.12.4,1.85,1.85,0,0,1-.76-.17,1,1,0,0,1-.38-.31c-.08-.08-.06-.12-.14-.18a1,1,0,0,0-.23-.14,5.56,5.56,0,0,0-.74-.23" transform="translate(0 0)"/>
              </g>
            </g>
            <path class="cls-22" d="M77,50.21C74.4,48,68,46.66,62.32,47.91c-1.85.41-5,1.1-6.55,3.8A8.53,8.53,0,0,0,54.94,57a13.61,13.61,0,0,0,5.23,9.18c3.48,2.61,7.38,3.18,12.12,1.66A11.48,11.48,0,0,0,79.1,62c.36-.65,1.39-3.8,1.84-4.62a1.93,1.93,0,0,1,1.69-1.22V53.32a15.51,15.51,0,0,1-1.89-.68A14,14,0,0,1,77,50.21m1.78,7.12a12.09,12.09,0,0,1-1.57,5.61c-2.57,4.16-7.81,4.6-8.38,4.64-4.14.28-9.21-1.76-11.29-6.42-.19-.43-2.22-5.17.08-8.92,3.47-5.64,13.16-3.19,16.32-2s4.2,2.82,4.51,3.54a7,7,0,0,1,.33,3.56" transform="translate(0 0)"/>
            <path class="cls-22" d="M84.33,57.33c.45.82,1.48,4,1.84,4.62A11.48,11.48,0,0,0,93,67.86a14,14,0,0,0,7.76.48,11.76,11.76,0,0,0,4.36-2.14c4.49-3.58,6-10.67,3.62-14.66a7.26,7.26,0,0,0-3.24-3.09,7.79,7.79,0,0,0-2.52-.54c-4.63-.67-11-.46-14.69,2.3a21.35,21.35,0,0,1-3.63,2.26,20.22,20.22,0,0,1-2,.84v2.8a2,2,0,0,1,1.7,1.22m22.86-5.45a9.51,9.51,0,0,1,.72,8.88c-.08.18-.15.31-.2.4a12.09,12.09,0,0,1-11.28,6.42c-.69,0-5.82-.43-8.36-4.46a10.74,10.74,0,0,1-1.6-5.79,8,8,0,0,1,1.46-5.14c.59-.74,1.74-1.83,4.71-2.59,2.08-.52,11-2.79,14.55,2.28" transform="translate(0 0)"/>
            <g class="cls-23">
              <g class="cls-24">
                <path class="cls-25" d="M81.74,80.9A2.35,2.35,0,0,0,85,81s1.35-1,3.44.87A4.38,4.38,0,0,0,91,83.26s-1.4.56-6-.37a14.56,14.56,0,0,0-4.9.45,36.57,36.57,0,0,1-5,0A8.29,8.29,0,0,0,78.19,82a4.44,4.44,0,0,1,3.55-1.11" transform="translate(0 0)"/>
              </g>
            </g>
            <path class="cls-26" d="M93.51,82.35a8,8,0,0,1-3.39,1.59,10.15,10.15,0,0,1-2.13.12,10,10,0,0,1-1.07-.12,6.82,6.82,0,0,1-1.08-.27l.08,0a12.82,12.82,0,0,0-2.32-.19,13.63,13.63,0,0,0-2.32.16h0a12.24,12.24,0,0,1-4.24.27,12,12,0,0,1-4.15-1.23,7.3,7.3,0,0,0,1.13.35,6.55,6.55,0,0,0,1,.17,13,13,0,0,0,2,0A14.2,14.2,0,0,0,81,82.72h0a13.59,13.59,0,0,1,2.53-.22,14.14,14.14,0,0,1,2.5.26h0l0,0a7,7,0,0,0,.91.26c.32.07.64.13,1,.17a12.24,12.24,0,0,0,2,.07,7.85,7.85,0,0,0,2-.26,6,6,0,0,0,1.46-.67" transform="translate(0 0)"/>
            <g class="cls-23">
              <g class="cls-27">
                <path class="cls-25" d="M75.48,83.33s.16.15.52.34a3.06,3.06,0,0,0,1.08.26,9.92,9.92,0,0,0,1.24.08c.32,0,.74,0,1.24-.05l.71-.09c.4-.1.74-.16,1-.2a14.11,14.11,0,0,1,1.46-.15c.35,0,.64,0,.86,0s.74,0,1.16,0,.81.09,1.16.15l1.26.28a8.57,8.57,0,0,0,1.5.09A8.3,8.3,0,0,0,91,83.69,4.38,4.38,0,0,1,88.72,86a4.93,4.93,0,0,1-3,.28l0,0a5.53,5.53,0,0,0-1.09-.35,4.72,4.72,0,0,0-1.12-.1,6.32,6.32,0,0,0-2.24.38h0a4.76,4.76,0,0,1-2.89-.1,5.22,5.22,0,0,1-1.31-.7,3.8,3.8,0,0,1-1.5-2.1" transform="translate(0 0)"/>
              </g>
            </g>
            <path class="cls-26" d="M93.44,81.7a.67.67,0,0,1,.22.2,1.09,1.09,0,0,1,.17.63.81.81,0,0,1-.34.58.84.84,0,0,1-.29.1,1.42,1.42,0,0,1,.07-.27s0-.15,0-.22a1.75,1.75,0,0,0,0-.24c0-.16,0-.34.05-.5s0-.28,0-.28" transform="translate(0 0)"/>
            <path class="cls-26" d="M73.16,82.06a.72.72,0,0,0-.23.21,1,1,0,0,0-.18.62.91.91,0,0,0,.36.59.71.71,0,0,0,.3.09,2.2,2.2,0,0,0-.08-.26c0-.06,0-.16,0-.23a1.81,1.81,0,0,1,0-.23c0-.17,0-.35,0-.5s0-.29,0-.29" transform="translate(0 0)"/>
            <g class="cls-28">
              <g class="cls-29">
                <path class="cls-17" d="M84.5,63.32a.41.41,0,1,1-.41-.39.4.4,0,0,1,.41.39" transform="translate(0 0)"/>
              </g>
            </g>
            <g class="cls-28">
              <g class="cls-30">
                <path class="cls-17" d="M84.23,65.63c0,.11-.12.19-.28.19s-.27-.08-.27-.19.12-.2.27-.2.28.09.28.2" transform="translate(0 0)"/>
              </g>
            </g>
            <g class="cls-28">
              <g class="cls-31">
                <path class="cls-17" d="M81.85,61.87a.41.41,0,1,1-.41-.4.4.4,0,0,1,.41.4" transform="translate(0 0)"/>
              </g>
            </g>
            <g class="cls-28">
              <g class="cls-32">
                <path class="cls-17" d="M82.19,68a.4.4,0,0,1-.41.39.41.41,0,0,1-.41-.39.4.4,0,0,1,.41-.39.4.4,0,0,1,.41.39" transform="translate(0 0)"/>
              </g>
            </g>
            <g class="cls-28">
              <g class="cls-33">
                <path class="cls-17" d="M85.32,69.14a.35.35,0,0,1-.69,0,.35.35,0,0,1,.69,0" transform="translate(0 0)"/>
              </g>
            </g>
            <g class="cls-28">
              <g class="cls-34">
                <path class="cls-17" d="M87.48,64.79a.25.25,0,0,1-.25.25.25.25,0,1,1,0-.5.25.25,0,0,1,.25.25" transform="translate(0 0)"/>
              </g>
            </g>
            <g class="cls-28">
              <g class="cls-35">
                <path class="cls-17" d="M89.19,62.79a.26.26,0,1,1-.26-.25.26.26,0,0,1,.26.25" transform="translate(0 0)"/>
              </g>
            </g>
            <g class="cls-28">
              <g class="cls-36">
                <path class="cls-17" d="M88.78,67.77a.4.4,0,0,1-.41.39.39.39,0,1,1,0-.78.4.4,0,0,1,.41.39" transform="translate(0 0)"/>
              </g>
            </g>
            <g class="cls-28">
              <g class="cls-37">
                <path class="cls-17" d="M78.71,65.43A.41.41,0,1,1,78.3,65a.4.4,0,0,1,.41.39" transform="translate(0 0)"/>
              </g>
            </g>
            <g class="cls-28">
              <g class="cls-38">
                <path class="cls-17" d="M76.56,68.16a.41.41,0,1,1-.41-.39.4.4,0,0,1,.41.39" transform="translate(0 0)"/>
              </g>
            </g>
            <g class="cls-28">
              <g class="cls-39">
                <path class="cls-17" d="M76.44,63.06a.27.27,0,1,1-.27-.27.27.27,0,0,1,.27.27" transform="translate(0 0)"/>
              </g>
            </g>
            <g class="cls-28">
              <g class="cls-40">
                <path class="cls-17" d="M74.37,64.25a.41.41,0,1,1-.41-.39.4.4,0,0,1,.41.39" transform="translate(0 0)"/>
              </g>
            </g>
            <g class="cls-28">
              <g class="cls-41">
                <path class="cls-17" d="M73.55,68.16a.4.4,0,0,1-.41.39.39.39,0,1,1,0-.78.4.4,0,0,1,.41.39" transform="translate(0 0)"/>
              </g>
            </g>
            <g class="cls-28">
              <g class="cls-42">
                <path class="cls-17" d="M70.44,67a.41.41,0,0,1-.41.4.4.4,0,1,1,0-.79.41.41,0,0,1,.41.39" transform="translate(0 0)"/>
              </g>
            </g>
            <g class="cls-28">
              <g class="cls-43">
                <path class="cls-17" d="M68.9,70.31a.27.27,0,0,1-.24.3c-.14,0-.24-.13-.24-.3a.26.26,0,0,1,.24-.29.27.27,0,0,1,.24.29" transform="translate(0 0)"/>
              </g>
            </g>
            <g class="cls-28">
              <g class="cls-44">
                <path class="cls-17" d="M90.93,64.43a.41.41,0,0,1-.41.39.4.4,0,1,1,0-.79.41.41,0,0,1,.41.4" transform="translate(0 0)"/>
              </g>
            </g>
            <g class="cls-28">
              <g class="cls-45">
                <path class="cls-17" d="M90.93,68.69a.4.4,0,0,1-.41.39.39.39,0,1,1,0-.78.4.4,0,0,1,.41.39" transform="translate(0 0)"/>
              </g>
            </g>
            <g class="cls-28">
              <g class="cls-46">
                <path class="cls-17" d="M93.32,65.21a.4.4,0,0,1-.41.39.39.39,0,1,1,0-.78.4.4,0,0,1,.41.39" transform="translate(0 0)"/>
              </g>
            </g>
            <g class="cls-28">
              <g class="cls-47">
                <path class="cls-17" d="M93.73,68.66a.29.29,0,1,1-.28-.28.29.29,0,0,1,.28.28" transform="translate(0 0)"/>
              </g>
            </g>
            <g class="cls-28">
              <g class="cls-48">
                <path class="cls-17" d="M94.65,64a.27.27,0,1,1-.54,0,.27.27,0,1,1,.54,0" transform="translate(0 0)"/>
              </g>
            </g>
            <g class="cls-28">
              <g class="cls-49">
                <path class="cls-17" d="M71.26,64.38a.27.27,0,1,1-.27-.26.27.27,0,0,1,.27.26" transform="translate(0 0)"/>
              </g>
            </g>
            <g class="cls-28">
              <g class="cls-50">
                <path class="cls-17" d="M96.23,66.31a.41.41,0,1,1-.41-.39.4.4,0,0,1,.41.39" transform="translate(0 0)"/>
              </g>
            </g>
            <g class="cls-28">
              <g class="cls-51">
                <path class="cls-17" d="M82.86,64.12a.26.26,0,1,1-.26-.26.26.26,0,0,1,.26.26" transform="translate(0 0)"/>
              </g>
            </g>
            <g class="cls-28">
              <g class="cls-52">
                <path class="cls-17" d="M67.7,65.82a.41.41,0,1,1-.41-.39.4.4,0,0,1,.41.39" transform="translate(0 0)"/>
              </g>
            </g>
          </g>
        </g>
      </g>
    </g>
  </g>
</svg>
