<svg id="Group_341" data-name="Group 341" xmlns="http://www.w3.org/2000/svg" width="84.79" height="87.833" viewBox="0 0 84.79 87.833">
  <path id="Path_384" data-name="Path 384" d="M1717.747,329.191a48.187,48.187,0,0,1-.252,10.989,2.446,2.446,0,0,1-3.377.454c-1.815-1.411-2.117-4.94-2.117-4.94l.353-6.049s2.772-1.815,3.932-1.311A4.422,4.422,0,0,1,1717.747,329.191Z" transform="translate(-1633.164 -320.218)" fill="#fff"/>
  <ellipse id="Ellipse_24" data-name="Ellipse 24" cx="4.94" cy="6.553" rx="4.94" ry="6.553" transform="translate(60.335 7.36)" fill="#fff"/>
  <path id="Path_385" data-name="Path 385" d="M1726.021,392.711v0Z" transform="translate(-1646.479 -381.434)" fill="none"/>
  <path id="Path_386" data-name="Path 386" d="M1730.182,525.464v0Z" transform="translate(-1650.43 -507.495)" fill="none"/>
  <path id="Path_387" data-name="Path 387" d="M1730.747,493.216v0Z" transform="translate(-1650.967 -476.873)" fill="none"/>
  <path id="Path_388" data-name="Path 388" d="M1729.842,451.948v0Z" transform="translate(-1650.107 -437.685)" fill="none"/>
  <path id="Path_389" data-name="Path 389" d="M1730.3,464.879h0Z" transform="translate(-1650.54 -449.964)" fill="none"/>
  <path id="Path_390" data-name="Path 390" d="M1774.327,1386.93a.859.859,0,0,0,1.368,1.04.859.859,0,0,0-1.368-1.04Z" transform="translate(-1692.184 -1325.214)" fill="#82952c"/>
  <path id="Path_391" data-name="Path 391" d="M1723.621,1310.281a.388.388,0,1,0-.469.617h0a.388.388,0,0,0,.469-.617Z" transform="translate(-1643.608 -1252.676)" fill="#82952c"/>
  <path id="Path_392" data-name="Path 392" d="M1759.243,1449.557a.243.243,0,1,0,.344,0A.243.243,0,0,0,1759.243,1449.557Z" transform="translate(-1677.961 -1384.936)" fill="#82952c"/>
  <path id="Path_393" data-name="Path 393" d="M1642.828,1264.632a.67.67,0,0,0-.409-.139.733.733,0,0,0-.093.006.68.68,0,1,0,.5.133Z" transform="translate(-1566.445 -1209.271)" fill="#82952c"/>
  <path id="Path_394" data-name="Path 394" d="M1757.952,1329.057h0a.668.668,0,1,0-.258-.442A.668.668,0,0,0,1757.952,1329.057Z" transform="translate(-1676.55 -1269.442)" fill="#82952c"/>
  <path id="Path_395" data-name="Path 395" d="M1801.685,1460.13a.668.668,0,1,0,.01,1.335.659.659,0,0,0,.384-.13q.09-.48.132-.946a.73.73,0,0,0-.06-.071A.666.666,0,0,0,1801.685,1460.13Z" transform="translate(-1717.694 -1395.046)" fill="#82952c"/>
  <path id="Path_396" data-name="Path 396" d="M1778.79,1503.5a.378.378,0,0,0,.276.109.388.388,0,1,0-.284-.658A.39.39,0,0,0,1778.79,1503.5Z" transform="translate(-1696.477 -1435.599)" fill="#82952c"/>
  <path id="Path_397" data-name="Path 397" d="M1334.276,1089.574a1.4,1.4,0,0,1-.2.014,1.429,1.429,0,0,1-.528-2.756,10.84,10.84,0,0,0-.86-.842,1.353,1.353,0,1,1-1.538-1.16c-5.535-3.626-14.59-4.7-17.374-4.954a2.466,2.466,0,0,1-.03,1.782,7.406,7.406,0,0,1-.866,1.78,13.937,13.937,0,0,1,6.062,2.609c4.02,2.86,8.9,10.657,9.894,13.241s2.187,1.391,3.777,4.174,3.379,2.783,3.8,2.052a18.4,18.4,0,0,0,2.036-4.782,1.066,1.066,0,0,1-.275.045h-.016a1.065,1.065,0,1,1,.556-1.973c.094-2.908-1.238-5.614-3.585-9.668A1.418,1.418,0,0,1,1334.276,1089.574Zm-3.28.938a1.078,1.078,0,0,1-1.509.205h0a1.077,1.077,0,1,1,1.509-.205Zm3.573,1.836a.785.785,0,1,1-.15-1.1A.779.779,0,0,1,1334.568,1092.348Zm.607,6.861a.641.641,0,1,1,.906-.013h0a.641.641,0,0,1-.906.013Zm2.121,1.812a.785.785,0,0,1-.536,1.348h-.012a.785.785,0,1,1,.548-1.348Zm.942-4.995a1.257,1.257,0,0,1-2.006,1.17h0a1.257,1.257,0,1,1,2.006-1.17Zm-1.621-3.83a1.066,1.066,0,1,1-1.493.2A1.058,1.058,0,0,1,1336.617,1092.2Z" transform="translate(-1254.165 -1033.959)" fill="#82952c"/>
  <path id="Path_398" data-name="Path 398" d="M1713.173,1224.69a1.032,1.032,0,1,0,1.644,1.249.154.154,0,0,0,.009-.014l-.285-.49a8.374,8.374,0,0,0-.794-1.122A1.026,1.026,0,0,0,1713.173,1224.69Z" transform="translate(-1634.078 -1171.117)" fill="#82952c"/>
  <path id="Path_399" data-name="Path 399" d="M1660.682,1187.459a.955.955,0,1,0-.182-1.338A.956.956,0,0,0,1660.682,1187.459Z" transform="translate(-1584.075 -1134.491)" fill="#82952c"/>
  <path id="Path_400" data-name="Path 400" d="M1652.7,1178.684a1.353,1.353,0,1,0,2.417.642,13.766,13.766,0,0,0-1.538-1.16A1.346,1.346,0,0,0,1652.7,1178.684Zm.316.241a.955.955,0,1,1,.183,1.339A.955.955,0,0,1,1653.014,1178.925Z" transform="translate(-1576.591 -1127.296)" fill="#4d5c25"/>
  <path id="Path_401" data-name="Path 401" d="M1635.572,1256.824a1.076,1.076,0,1,0-1.3,1.714h0a1.076,1.076,0,1,0,1.3-1.714Zm-.111,1.268a.679.679,0,1,1-1.081-.822.672.672,0,0,1,.449-.262.711.711,0,0,1,.093-.006.679.679,0,0,1,.539,1.09Z" transform="translate(-1558.948 -1201.78)" fill="#4d5c25"/>
  <path id="Path_402" data-name="Path 402" d="M1705.367,1218.332a1.431,1.431,0,0,0,1.136,2.3,1.363,1.363,0,0,0,.2-.014,1.416,1.416,0,0,0,.85-.439l-.213-.367-.009.014a1.033,1.033,0,1,1-1.071-1.626q-.137-.165-.283-.325A1.418,1.418,0,0,0,1705.367,1218.332Z" transform="translate(-1626.589 -1165)" fill="#4d5c25"/>
  <path id="Path_403" data-name="Path 403" d="M1716.371,1302.467a.785.785,0,1,0-.477,1.411.8.8,0,0,0,.108-.007.785.785,0,0,0,.369-1.4Zm-.167.86a.388.388,0,0,1-.543.074h0a.388.388,0,1,1,.543-.074Z" transform="translate(-1636.118 -1245.178)" fill="#4d5c25"/>
  <path id="Path_404" data-name="Path 404" d="M1749.81,1321.186a1.065,1.065,0,1,0,.207-.789A1.059,1.059,0,0,0,1749.81,1321.186Zm.524-.548a.668.668,0,1,1,.128.936h0a.668.668,0,0,1-.128-.936Z" transform="translate(-1669.059 -1261.958)" fill="#4d5c25"/>
  <path id="Path_405" data-name="Path 405" d="M1766.526,1379.2a1.259,1.259,0,0,0,.24,1.761h0a1.257,1.257,0,1,0-.24-1.761Zm1.52.076a.86.86,0,1,1-.519-.175A.855.855,0,0,1,1768.046,1379.279Z" transform="translate(-1684.699 -1317.727)" fill="#4d5c25"/>
  <path id="Path_406" data-name="Path 406" d="M1771.011,1495.189a.786.786,0,0,0,.563,1.333h.012a.785.785,0,1,0-.574-1.333Zm.833.269a.387.387,0,0,1,.008.549.384.384,0,0,1-.272.117.375.375,0,0,1-.276-.11.388.388,0,0,1,.54-.556Z" transform="translate(-1688.991 -1428.113)" fill="#4d5c25"/>
  <path id="Path_407" data-name="Path 407" d="M1752.39,1442.686a.643.643,0,1,0-.459.193.641.641,0,0,0,.459-.193Zm-.285-.277a.243.243,0,1,1,0-.344A.243.243,0,0,1,1752.1,1442.409Z" transform="translate(-1670.474 -1377.45)" fill="#4d5c25"/>
  <path id="Path_408" data-name="Path 408" d="M1793.43,1452.587a1.065,1.065,0,0,0,.764,1.808h.015a1.058,1.058,0,0,0,.275-.044q.058-.244.1-.483a.661.661,0,0,1-.384.13.67.67,0,0,1-.475-.189.668.668,0,1,1,.991-.887q.022-.251.03-.5A1.067,1.067,0,0,0,1793.43,1452.587Z" transform="translate(-1710.204 -1387.578)" fill="#4d5c25"/>
  <path id="Path_409" data-name="Path 409" d="M671.129,1228.582c-2.636,1.172-5.091,2.15-7.367,2.952a15.034,15.034,0,0,0-2.021,3.21q-.132,2.537-.12,5.079a39.763,39.763,0,0,0,12.272-1.807,47.274,47.274,0,0,1-2.577-8.461C671.249,1229.23,671.188,1228.906,671.129,1228.582Z" transform="translate(-635.732 -1175.17)" fill="#f5ca76"/>
  <path id="Path_410" data-name="Path 410" d="M868.615,1159.463c-.182-.114-.368-.221-.551-.333-1.26.688-2.21,1.123-2.579,1.3q-1.042.513-2.049.987l-.538.253q-.781.365-1.542.707a46.684,46.684,0,0,0,2.771,9.509,55.532,55.532,0,0,0,9.752-4.053s1.085-.7,2.581-1.8A37.7,37.7,0,0,0,868.615,1159.463Z" transform="translate(-825.399 -1109.22)" fill="#f5ca76"/>
  <path id="Path_411" data-name="Path 411" d="M434.761,1330.666a37.145,37.145,0,0,1-4.829.733q-.753,1.459-1.453,2.944a46.235,46.235,0,0,0,4.636,1.286C434.293,1333.738,435.082,1331.746,434.761,1330.666Z" transform="translate(-414.344 -1272.108)" fill="#f5ca76"/>
  <path id="Path_412" data-name="Path 412" d="M634.165,1386.236q.391.034.788.056-.009-1.72.052-3.438A18.281,18.281,0,0,0,634.165,1386.236Z" transform="translate(-609.662 -1321.665)" fill="#f5ca76"/>
  <path id="Path_413" data-name="Path 413" d="M1010.39,1100.321c-.1.072-.193.146-.288.216a37.886,37.886,0,0,1-3.737,2.414,38.244,38.244,0,0,1,7.963,6.546c.1.113.205.228.308.342.775-.583,1.632-1.257,2.492-1.988-.027-.025-.053-.053-.08-.077A98.561,98.561,0,0,1,1010.39,1100.321Z" transform="translate(-963.099 -1053.374)" fill="#f5ca76"/>
  <path id="Path_414" data-name="Path 414" d="M1259.4,1063.965a1.644,1.644,0,0,0-1.249-.845,9.657,9.657,0,0,1-2.534,3.623,7.114,7.114,0,0,0,1.828,2.213,14.335,14.335,0,0,0,1.058-1.429,7.4,7.4,0,0,0,.865-1.78A2.465,2.465,0,0,0,1259.4,1063.965Z" transform="translate(-1199.788 -1018.049)" fill="#f5ca76"/>
  <path id="Path_415" data-name="Path 415" d="M352.64,1339.23q-.3.016-.6.024c-.484.014-.951.015-1.4,0a10.744,10.744,0,0,1-2.716-.394.715.715,0,0,0-.063.376c.1.962,1.247,1.84,3.5,2.687q.637-1.359,1.319-2.7Z" transform="translate(-337.79 -1279.888)" fill="#f5ca76"/>
  <path id="Path_416" data-name="Path 416" d="M995.046,1152.491c-.207.117-.408.229-.6.334.184.111.37.218.551.333a37.682,37.682,0,0,1,7.844,6.576q.232-.171.477-.355c-.1-.114-.2-.229-.308-.342A38.249,38.249,0,0,0,995.046,1152.491Z" transform="translate(-951.78 -1102.915)" fill="#b48645"/>
  <path id="Path_417" data-name="Path 417" d="M850.277,1223.883c.059.324.12.649.186.971a47.274,47.274,0,0,0,2.577,8.462c.19-.056.378-.115.567-.173a46.673,46.673,0,0,1-2.771-9.509Z" transform="translate(-814.88 -1170.471)" fill="#b48645"/>
  <path id="Path_418" data-name="Path 418" d="M649.838,1352.423q-.057,1.719-.052,3.439c.2.011.4.018.6.024q-.013-2.541.12-5.078A17.265,17.265,0,0,0,649.838,1352.423Z" transform="translate(-624.495 -1291.235)" fill="#b48645"/>
  <path id="Path_419" data-name="Path 419" d="M418.681,1345.266q-.681,1.337-1.319,2.7c.179.067.367.135.56.2q.7-1.486,1.453-2.944C419.14,1345.238,418.908,1345.254,418.681,1345.266Z" transform="translate(-403.787 -1285.927)" fill="#b48645"/>
  <path id="Path_420" data-name="Path 420" d="M1400.716,435.881c1.333-.04,2.367-1.652,2.308-3.6a5.155,5.155,0,0,0-.089-.8,3.789,3.789,0,0,1-1.071,2.406,1.456,1.456,0,0,1-1.213,1,1.476,1.476,0,0,1-1.291-.97,3.772,3.772,0,0,1-1.141-2.159,5.088,5.088,0,0,0-.024.664C1398.254,434.375,1399.383,435.921,1400.716,435.881Z" transform="translate(-1335.176 -418.253)" fill="#10678c"/>
  <path id="Path_421" data-name="Path 421" d="M1399.855,383.867a2.953,2.953,0,0,1-.274-1.174c-.035-1.174.569-2.148,1.361-2.227a.517.517,0,0,1,1.023.076.49.49,0,0,1-.082.287,2.591,2.591,0,0,1,.694,1.774,2.935,2.935,0,0,1-.219,1.232,3.792,3.792,0,0,0,1.07-2.406c-.3-1.555-1.287-2.691-2.432-2.656-1.178.036-2.12,1.3-2.284,2.936A3.772,3.772,0,0,0,1399.855,383.867Z" transform="translate(-1335.671 -368.197)" fill="#0d394f"/>
  <path id="Path_422" data-name="Path 422" d="M1418.2,412.759a.519.519,0,0,1-.419.232.51.51,0,0,1-.531-.488.47.47,0,0,1,.009-.107c-.793.079-1.4,1.053-1.361,2.227a2.948,2.948,0,0,0,.274,1.174,1.475,1.475,0,0,0,1.291.97,1.456,1.456,0,0,0,1.213-1,2.93,2.93,0,0,0,.219-1.232A2.589,2.589,0,0,0,1418.2,412.759Z" transform="translate(-1351.986 -400.127)" fill="#040506"/>
  <path id="Path_423" data-name="Path 423" d="M1443.279,405.231a.518.518,0,0,0,.419-.232.492.492,0,0,0,.082-.287.517.517,0,0,0-1.023-.076.492.492,0,0,0-.009.107A.51.51,0,0,0,1443.279,405.231Z" transform="translate(-1377.485 -392.367)" fill="#fff"/>
  <path id="Path_424" data-name="Path 424" d="M1569.576,525.485v0q-.013.362-.033.719s0,.01,0,.015q-.02.35-.046.695c0,.016,0,.031,0,.046q-.025.328-.058.65c0,.033-.007.065-.01.1-.02.2-.042.394-.067.587-.007.055-.015.109-.022.163-.023.171-.046.342-.072.51-.012.082-.027.161-.041.242-.023.14-.046.281-.071.418-.021.115-.046.228-.069.341s-.04.2-.062.3q-.068.306-.145.6c0,.009,0,.018-.006.026a4.61,4.61,0,0,1-4.346,3.788h0c.116,0,.18,0,.18,0s-1.215,5.031-3.653,6.133c4.28-.2,8.163-.435,10.8-5.155a24.776,24.776,0,0,0,2.311-8.171,3.306,3.306,0,0,1-1.179.22A4.047,4.047,0,0,1,1569.576,525.485Z" transform="translate(-1489.824 -507.515)" fill="#809526"/>
  <path id="Path_425" data-name="Path 425" d="M1470,665.889h0c-.766-.309-1.477-.639-2.091-.945h0A16.549,16.549,0,0,0,1470,665.889Z" transform="translate(-1401.379 -639.944)" fill="#809526"/>
  <path id="Path_426" data-name="Path 426" d="M1358.51,772.192a8.1,8.1,0,0,1-2.257-2.59h0a27.246,27.246,0,0,0-5.622,7.943l.006-.012a7.719,7.719,0,0,1,4.9-4.284,22.11,22.11,0,0,1,2.978-.445c.341-.03.681-.055,1.019-.076a3.245,3.245,0,0,1-.618-.275C1358.779,772.374,1358.643,772.285,1358.51,772.192Z" transform="translate(-1290.012 -739.327)" fill="#809526"/>
  <path id="Path_427" data-name="Path 427" d="M1729.554,525.533q-.013.362-.033.719" transform="translate(-1649.802 -507.561)" fill="none" stroke="#809526" stroke-linecap="round" stroke-linejoin="round" stroke-width="0"/>
  <path id="Path_428" data-name="Path 428" d="M1728.631,540.094q-.02.35-.046.695" transform="translate(-1648.913 -521.388)" fill="none" stroke="#809526" stroke-linecap="round" stroke-linejoin="round" stroke-width="0"/>
  <path id="Path_429" data-name="Path 429" d="M1727.419,554.8q-.026.328-.058.65" transform="translate(-1647.751 -535.35)" fill="none" stroke="#809526" stroke-linecap="round" stroke-linejoin="round" stroke-width="0"/>
  <path id="Path_430" data-name="Path 430" d="M1719.152,614.807c.022-.1.041-.2.062-.3" transform="translate(-1639.956 -592.047)" fill="none" stroke="#809526" stroke-linecap="round" stroke-linejoin="round" stroke-width="0"/>
  <path id="Path_431" data-name="Path 431" d="M1721.748,599.851c.026-.137.048-.278.071-.418" transform="translate(-1642.421 -577.735)" fill="none" stroke="#809526" stroke-linecap="round" stroke-linejoin="round" stroke-width="0"/>
  <path id="Path_432" data-name="Path 432" d="M1725.9,569.635c-.02.2-.042.394-.067.587" transform="translate(-1646.297 -549.439)" fill="none" stroke="#809526" stroke-linecap="round" stroke-linejoin="round" stroke-width="0"/>
  <path id="Path_433" data-name="Path 433" d="M1723.966,585.034c.026-.168.049-.339.072-.51" transform="translate(-1644.527 -563.578)" fill="none" stroke="#809526" stroke-linecap="round" stroke-linejoin="round" stroke-width="0"/>
  <path id="Path_434" data-name="Path 434" d="M1699.061,195.027c.385,2.073.91,5.287,1.211,8.767v.005a4.19,4.19,0,0,1,3.616-2.631,3.334,3.334,0,0,1,1.406.316c-.058-.59-.125-1.176-.208-1.752a29.574,29.574,0,0,0-1.037-4.686c-.562-1.775-2.515-1.287-4.267-.971-.223.04-.443.078-.656.107-.075.01-.148.019-.221.027q.036.186.076.392c.021.108.042.223.063.338Z" transform="translate(-1620.73 -192.518)" fill="#809526"/>
  <path id="Path_435" data-name="Path 435" d="M1700.469,210.683l-.064-.338" transform="translate(-1622.155 -208.261)" fill="none" stroke="#809526" stroke-linecap="round" stroke-linejoin="round" stroke-width="0"/>
  <path id="Path_436" data-name="Path 436" d="M1726.145,394.324q-.049-.744-.112-1.477" transform="translate(-1646.49 -381.563)" fill="none" stroke="#fff" stroke-linecap="round" stroke-linejoin="round" stroke-width="0"/>
  <path id="Path_437" data-name="Path 437" d="M1730.206,509.53q-.007.4-.022.8" transform="translate(-1650.432 -492.364)" fill="none" stroke="#fff" stroke-linecap="round" stroke-linejoin="round" stroke-width="0"/>
  <path id="Path_438" data-name="Path 438" d="M1730.624,493.3q0,.408-.006.811" transform="translate(-1650.844 -476.951)" fill="none" stroke="#fff" stroke-linecap="round" stroke-linejoin="round" stroke-width="0"/>
  <path id="Path_439" data-name="Path 439" d="M1728.264,422.279q.048.745.08,1.5" transform="translate(-1648.609 -409.512)" fill="none" stroke="#fff" stroke-linecap="round" stroke-linejoin="round" stroke-width="0"/>
  <path id="Path_440" data-name="Path 440" d="M1732.217,445.451c1.287,0,2.331-1.525,2.331-3.406a4.935,4.935,0,0,0-.062-.772,3.661,3.661,0,0,1-1.1,2.291,1.407,1.407,0,0,1-1.2.932,1.423,1.423,0,0,1-1.216-.972,3.488,3.488,0,0,1-.968-1.766h0q.021.716.022,1.427h0C1730.344,444.505,1731.2,445.451,1732.217,445.451Z" transform="translate(-1650.257 -427.548)" fill="#10678c"/>
  <path id="Path_441" data-name="Path 441" d="M1730.3,464.9q.021.716.022,1.427" transform="translate(-1650.541 -449.982)" fill="none" stroke="#10678c" stroke-linecap="round" stroke-linejoin="round" stroke-width="0"/>
  <path id="Path_442" data-name="Path 442" d="M1730.535,393.9a2.842,2.842,0,0,1-.231-1.142c0-1.134.611-2.056,1.379-2.109a.5.5,0,0,1,.984.1.475.475,0,0,1-.087.274,2.5,2.5,0,0,1,.619,1.732,2.836,2.836,0,0,1-.247,1.183,3.66,3.66,0,0,0,1.1-2.291c-.24-1.509-1.164-2.634-2.269-2.634-1.065,0-1.961,1.043-2.24,2.468v0q.013.324.023.648h0A3.49,3.49,0,0,0,1730.535,393.9Z" transform="translate(-1649.825 -377.928)" fill="#0d394f"/>
  <path id="Path_443" data-name="Path 443" d="M1729.845,452.016q.013.324.023.648" transform="translate(-1650.11 -437.75)" fill="none" stroke="#0d394f" stroke-linecap="round" stroke-linejoin="round" stroke-width="0"/>
  <path id="Path_444" data-name="Path 444" d="M1746.89,421.8a.5.5,0,0,1-.411.212.492.492,0,0,1-.5-.486.478.478,0,0,1,.012-.1c-.767.053-1.378.975-1.378,2.109a2.844,2.844,0,0,0,.231,1.142,1.424,1.424,0,0,0,1.216.972,1.407,1.407,0,0,0,1.2-.932,2.838,2.838,0,0,0,.247-1.183A2.5,2.5,0,0,0,1746.89,421.8Z" transform="translate(-1664.134 -408.694)" fill="#040506"/>
  <path id="Path_445" data-name="Path 445" d="M1772.222,414.794a.5.5,0,0,0,.411-.212.475.475,0,0,0,.087-.274.5.5,0,0,0-.984-.1.456.456,0,0,0-.012.1A.492.492,0,0,0,1772.222,414.794Z" transform="translate(-1689.878 -401.481)" fill="#fff"/>
  <path id="Path_446" data-name="Path 446" d="M1426.571,632.363s-.063,0-.18,0h0a20.275,20.275,0,0,1-6.077-1.23h0a16.556,16.556,0,0,1-2.091-.945h0a13.624,13.624,0,0,1-2.637-1.845s.1.779.374,1.913a11.748,11.748,0,0,1,1.322.656,10.534,10.534,0,0,1,2.9,2.418h0c1.123,1.385,1.539,2.842.942,3.875a2.152,2.152,0,0,1-.938.849c.133.093.269.181.41.262a3.256,3.256,0,0,0,.618.275,2.294,2.294,0,0,0,1.7-.089C1425.356,637.395,1426.571,632.363,1426.571,632.363Z" transform="translate(-1351.693 -605.184)" fill="#4d5c25"/>
  <path id="Path_447" data-name="Path 447" d="M1427.24,674.091a2.156,2.156,0,0,0,.938-.849c.6-1.033.18-2.49-.943-3.875h0a10.525,10.525,0,0,0-2.9-2.418,11.694,11.694,0,0,0-1.322-.656,19.678,19.678,0,0,0,1.973,5.208h0A8.105,8.105,0,0,0,1427.24,674.091Z" transform="translate(-1358.742 -641.225)" fill="#e13947"/>
  <path id="Path_448" data-name="Path 448" d="M374.515,1737.6a.379.379,0,1,0,.1.527h0a.379.379,0,0,0-.1-.527Z" transform="translate(-362.537 -1658.47)" fill="#9bb236"/>
  <path id="Path_449" data-name="Path 449" d="M345.7,1689.553a.237.237,0,1,0,.391.268.236.236,0,0,0-.062-.329A.237.237,0,0,0,345.7,1689.553Z" transform="translate(-335.697 -1612.806)" fill="#9bb236"/>
  <path id="Path_450" data-name="Path 450" d="M290.167,1725.906a1.015,1.015,0,1,0,.424.651A1.009,1.009,0,0,0,290.167,1725.906Z" transform="translate(-281.494 -1647.255)" fill="#9bb236"/>
  <path id="Path_451" data-name="Path 451" d="M174.08,1290.344a15.029,15.029,0,0,1,2.021-3.209q-.945.333-1.849.625l-.345.111-.27.085-.3.094c-1.731.535-3.344.957-4.846,1.279.321,1.08-.468,3.072-1.646,4.963-1.234,1.98-2.893,3.848-4.157,4.438-2.717,1.268-6.8,1.519-8.332,2.536-6.1,4.038-8.513,9.238-3.8,10.143s10.144.181,13.036-1.49a15.347,15.347,0,0,0,3.512-3.206,1.052,1.052,0,1,1,1.192-1.5c2.037-2.743,3.848-6.176,4.2-9.2.026-.228.057-.451.09-.671a18.286,18.286,0,0,1,.84-3.382A17.223,17.223,0,0,1,174.08,1290.344Zm-21.374,20.031a1.74,1.74,0,1,1-.45-2.419A1.739,1.739,0,0,1,152.706,1310.375Zm4.628.683a1.413,1.413,0,1,1,.224-1.058A1.411,1.411,0,0,1,157.334,1311.057Zm1.457-3.048a.634.634,0,0,1-.524.275.634.634,0,0,1-.522-.993.634.634,0,0,1,1.046.718Zm1.685,2.647a.777.777,0,1,1,.123-.582A.776.776,0,0,1,160.476,1310.657Zm1.284-1.9a1.045,1.045,0,0,1-.676.44,1.078,1.078,0,0,1-.195.018,1.054,1.054,0,1,1,.871-.458Zm-.246-2.92a1.5,1.5,0,0,1-.276.026,1.5,1.5,0,1,1,.276-.026Zm3.457,1.871a1.242,1.242,0,1,1-.321-1.727A1.241,1.241,0,0,1,164.971,1307.71Zm.5-2.79a.777.777,0,1,1-.069-1.1A.775.775,0,0,1,165.475,1304.92Z" transform="translate(-148.072 -1230.771)" fill="#9bb236"/>
  <path id="Path_452" data-name="Path 452" d="M187.017,1702.246a1.333,1.333,0,0,0-.757-.236,1.379,1.379,0,0,0-.248.023,1.342,1.342,0,1,0,1.005.213Z" transform="translate(-183.058 -1624.733)" fill="#9bb236"/>
  <path id="Path_453" data-name="Path 453" d="M390.4,1691.424a.656.656,0,1,0-.742,1.081.656.656,0,1,0,.742-1.081Z" transform="translate(-377.21 -1614.571)" fill="#9bb236"/>
  <path id="Path_454" data-name="Path 454" d="M447.565,1664.775a.84.84,0,0,0-.476-.148.872.872,0,0,0-.156.015.844.844,0,1,0,.633.134Z" transform="translate(-431.212 -1589.234)" fill="#9bb236"/>
  <path id="Path_455" data-name="Path 455" d="M389.321,1607.573a1.085,1.085,0,0,0-.617-.192,1.107,1.107,0,0,0-.2.019,1.095,1.095,0,1,0,1.1,1.7h0a1.094,1.094,0,0,0-.283-1.522Z" transform="translate(-375.533 -1534.874)" fill="#9bb236"/>
  <path id="Path_456" data-name="Path 456" d="M518.227,1642.323a.655.655,0,1,0,.049,1.308q.3-.363.6-.749a.648.648,0,0,0-.645-.559Z" transform="translate(-498.944 -1568.055)" fill="#9bb236"/>
  <path id="Path_457" data-name="Path 457" d="M474.606,1622.256a.379.379,0,1,0,.251.094A.378.378,0,0,0,474.606,1622.256Z" transform="translate(-457.785 -1549)" fill="#9bb236"/>
  <path id="Path_458" data-name="Path 458" d="M282.9,1718.09a1.413,1.413,0,1,0,.59.906A1.414,1.414,0,0,0,282.9,1718.09Zm.038,1.74a1.015,1.015,0,1,1,.161-.76A1.009,1.009,0,0,1,282.943,1719.829Z" transform="translate(-274.008 -1639.767)" fill="#4d5c25"/>
  <path id="Path_459" data-name="Path 459" d="M179.77,1694.425a1.739,1.739,0,1,0,.45,2.419A1.728,1.728,0,0,0,179.77,1694.425Zm.122,2.194a1.342,1.342,0,1,1-1.352-2.079,1.357,1.357,0,0,1,.248-.023,1.343,1.343,0,0,1,1.1,2.1Z" transform="translate(-175.585 -1617.24)" fill="#4d5c25"/>
  <path id="Path_460" data-name="Path 460" d="M367.256,1729.783a.777.777,0,1,0,.324.5A.772.772,0,0,0,367.256,1729.783Zm-.127.855h0a.38.38,0,1,1-.312-.594.379.379,0,0,1,.312.594Z" transform="translate(-355.053 -1650.976)" fill="#4d5c25"/>
  <path id="Path_461" data-name="Path 461" d="M338.761,1681.678a.634.634,0,1,0-.718,1.046.628.628,0,0,0,.358.111.634.634,0,0,0,.625-.75A.628.628,0,0,0,338.761,1681.678Zm-.163.657a.237.237,0,1,1,.037-.177A.235.235,0,0,1,338.6,1682.335Z" transform="translate(-328.205 -1605.321)" fill="#4d5c25"/>
  <path id="Path_462" data-name="Path 462" d="M383.135,1683.6a1.053,1.053,0,1,0-.6,1.922,1.057,1.057,0,0,0,.195-.018,1.053,1.053,0,0,0,.4-1.9Zm-.055,1.239a.656.656,0,1,1-.54-1.027.656.656,0,0,1,.54,1.027Z" transform="translate(-369.72 -1607.074)" fill="#4d5c25"/>
  <path id="Path_463" data-name="Path 463" d="M382.7,1600.711a1.492,1.492,0,1,0-1.47,1.765,1.5,1.5,0,0,0,.276-.025,1.492,1.492,0,0,0,1.194-1.74Zm-.564.892h0a1.094,1.094,0,1,1,.174-.82A1.089,1.089,0,0,1,382.131,1601.6Z" transform="translate(-368.059 -1527.382)" fill="#4d5c25"/>
  <path id="Path_464" data-name="Path 464" d="M440.3,1656.958a1.242,1.242,0,1,0,.321,1.727A1.236,1.236,0,0,0,440.3,1656.958Zm-.007,1.5a.844.844,0,1,1-.851-1.308.871.871,0,0,1,.156-.014.844.844,0,0,1,.694,1.322Z" transform="translate(-423.721 -1581.745)" fill="#4d5c25"/>
  <path id="Path_465" data-name="Path 465" d="M466.537,1614.637a.777.777,0,1,0,1.1-.069A.777.777,0,0,0,466.537,1614.637Zm.867.765a.379.379,0,1,1-.034-.536A.38.38,0,0,1,467.4,1615.4Z" transform="translate(-450.299 -1541.515)" fill="#4d5c25"/>
  <path id="Path_466" data-name="Path 466" d="M510.671,1634.427a1.051,1.051,0,0,0-.19,2.07c.1-.12.2-.242.306-.366a.658.658,0,1,1,.6-.75q.146-.19.29-.384a1.05,1.05,0,0,0-1-.57Z" transform="translate(-491.455 -1560.554)" fill="#4d5c25"/>
  <path id="Path_467" data-name="Path 467" d="M778.9,838.738c-.415.3-.84.589-1.286.872a48.606,48.606,0,0,1,7.938,4.084,14.507,14.507,0,0,0,1.025-1.037,18.7,18.7,0,0,0,3.369-5.682q.144,1.187.358,2.363a41.774,41.774,0,0,0,2.315,8.078q.129.323.263.644c.1-.07.192-.144.289-.216l.2-.148c-.021-.051-.041-.1-.062-.153l-.015-.037-.052-.129-.075-.185a41.133,41.133,0,0,1-2.428-8.885q-.2-1.293-.323-2.6c.146-.424.282-.847.412-1.268-1.27.038-4.115.139-7.405.361A31.646,31.646,0,0,1,778.9,838.738Z" transform="translate(-745.882 -800.897)" fill="#482c2b"/>
  <path id="Path_468" data-name="Path 468" d="M375.719,1023.761c-.095.322-.179.646-.256.972-.006.024-.01.048-.015.072q-.16.7-.262,1.4-.118.812-.161,1.633.295-.008.6-.024c.029-.546.088-1.09.169-1.63.061-.4.134-.805.225-1.2.021-.091.046-.182.068-.272.092-.376.194-.75.312-1.118a54.275,54.275,0,0,0,5.657-1.854c-.045-1.275-.173-2.55-.214-3.823a54.118,54.118,0,0,1,.116-5.657c.033-.448.072-.9.116-1.342a23.4,23.4,0,0,1-4.379.046,53.127,53.127,0,0,0-5.628,13.391c.242-.036.5-.067.767-.089A19.554,19.554,0,0,0,375.719,1023.761Z" transform="translate(-360.774 -968.475)" fill="#482c2b"/>
  <path id="Path_469" data-name="Path 469" d="M531.027,860.837a2.792,2.792,0,0,0,1.144.283.3.3,0,0,1,.085.01,52.305,52.305,0,0,0,7.263-2.178.254.254,0,0,1,.13-.049l.117-.044c.065-.42.138-.838.212-1.256.118-.67.243-1.34.383-2.006a27.166,27.166,0,0,0-7.423,1.7,11.189,11.189,0,0,0-3.363,2.9c.083.039.165.081.249.119C530.222,860.5,530.622,860.671,531.027,860.837Z" transform="translate(-510.344 -820.985)" fill="#673e3f"/>
  <path id="Path_470" data-name="Path 470" d="M488.085,959.077q.085-.864.2-1.726a3.614,3.614,0,0,1-.892-.255c-.422-.17-.84-.352-1.255-.539-.168-.076-.336-.154-.5-.232a29.052,29.052,0,0,0-1.926,2.8A23.421,23.421,0,0,0,488.085,959.077Z" transform="translate(-466.787 -916.637)" fill="#673e3f"/>
  <path id="Path_471" data-name="Path 471" d="M743.167,845.715a.361.361,0,0,1,0,.082q.879.277,1.737.608c.446-.283.871-.576,1.286-.872a31.659,31.659,0,0,0,4.519-3.937c-2.215.149-4.63.353-6.9.628q-.243,1.135-.441,2.278C743.3,844.907,743.229,845.31,743.167,845.715Z" transform="translate(-713.168 -807.692)" fill="#673e3f"/>
  <path id="Path_472" data-name="Path 472" d="M590.109,933.411a52.278,52.278,0,0,1-7.265,2.182c-.071.55-.131,1.1-.185,1.65a24.054,24.054,0,0,0,9.187-3.258C591.273,933.776,590.695,933.583,590.109,933.411Z" transform="translate(-560.753 -894.878)" fill="#673e3f"/>
  <path id="Path_473" data-name="Path 473" d="M523.667,859.98a3.615,3.615,0,0,0,.892.255q-.112.862-.2,1.726c-.044.447-.084.894-.116,1.342a54.155,54.155,0,0,0-.116,5.657c.041,1.273.169,2.548.214,3.823q.288-.111.58-.226-.027-.584-.068-1.167a57.82,57.82,0,0,1,.115-9.5c.053-.55.114-1.1.185-1.65a52.286,52.286,0,0,0,7.265-2.182c.585.172,1.164.365,1.738.574.428.156.854.32,1.275.495a49.512,49.512,0,0,1,6.835,3.6q.24-.2.468-.409a48.615,48.615,0,0,0-7.938-4.084q-.858-.33-1.737-.608a.346.346,0,0,0,0-.083c.063-.4.131-.808.2-1.211q.2-1.143.441-2.278-.314.038-.624.078c-.14.666-.265,1.335-.383,2.006-.073.418-.147.836-.212,1.256l-.117.045a.256.256,0,0,0-.13.049,52.29,52.29,0,0,1-7.263,2.178.311.311,0,0,0-.085-.01,2.8,2.8,0,0,1-1.144-.283c-.4-.166-.805-.341-1.2-.523-.084-.038-.166-.08-.249-.119q-.194.233-.386.478c.167.078.335.156.5.232C522.827,859.628,523.245,859.81,523.667,859.98Z" transform="translate(-503.064 -819.521)" fill="#38201f"/>
  <circle id="Ellipse_25" data-name="Ellipse 25" cx="1.242" cy="1.242" r="1.242" transform="translate(60.368 66.339)" fill="#9bb236"/>
  <path id="Path_474" data-name="Path 474" d="M1339.4,1480.419a1.64,1.64,0,1,0-1.64-1.64A1.642,1.642,0,0,0,1339.4,1480.419Zm0-2.882a1.242,1.242,0,1,1-1.242,1.242A1.244,1.244,0,0,1,1339.4,1477.537Z" transform="translate(-1277.788 -1411.198)" fill="#4d5c25"/>
  <path id="Path_475" data-name="Path 475" d="M1264.789,1684.546a.388.388,0,1,0,.387-.388A.388.388,0,0,0,1264.789,1684.546Z" transform="translate(-1208.497 -1607.781)" fill="#9bb236"/>
  <path id="Path_476" data-name="Path 476" d="M1245.79,1595.48a.679.679,0,1,0-.679-.679A.679.679,0,0,0,1245.79,1595.48Z" transform="translate(-1189.811 -1522.283)" fill="#9bb236"/>
  <circle id="Ellipse_26" data-name="Ellipse 26" cx="0.955" cy="0.955" r="0.955" transform="translate(58.698 70.292)" fill="#9bb236"/>
  <path id="Path_477" data-name="Path 477" d="M1396.906,1582.374a1.365,1.365,0,0,0,1.355,1.364q.517-1.119.988-2.311a1.363,1.363,0,0,0-2.344.947Z" transform="translate(-1333.954 -1509.833)" fill="#9bb236"/>
  <path id="Path_478" data-name="Path 478" d="M1323.121,1711.761a.243.243,0,1,0,.243.243A.243.243,0,0,0,1323.121,1711.761Z" transform="translate(-1263.657 -1633.993)" fill="#9bb236"/>
  <path id="Path_479" data-name="Path 479" d="M1065.094,217.694a9.66,9.66,0,0,0,2.534-3.623c.021-.069.045-.138.062-.206a30.868,30.868,0,0,1,1.759-5.76c.135-.3.279-.6.434-.887a27.253,27.253,0,0,1,5.622-7.943,19.684,19.684,0,0,1-1.973-5.208c-.27-1.134-.374-1.913-.374-1.913A13.637,13.637,0,0,0,1075.8,194c.614.307,1.325.637,2.091.945a20.274,20.274,0,0,0,6.076,1.23,4.61,4.61,0,0,0,4.346-3.788c0-.009,0-.018.006-.026q.077-.3.145-.6c.022-.1.041-.2.062-.3s.047-.226.069-.341c.026-.138.048-.278.071-.418.013-.081.028-.16.04-.242.026-.168.049-.339.072-.51.007-.055.015-.108.022-.163.024-.194.046-.39.067-.587,0-.033.007-.065.01-.1q.032-.322.058-.65c0-.016,0-.031,0-.046q.027-.345.046-.695s0-.01,0-.015q.02-.357.033-.719v0q.015-.4.022-.8v-.007q.008-.4.007-.811v0q0-.711-.023-1.427h0q-.01-.324-.023-.648v0q-.031-.75-.08-1.5s0,0,0-.006q-.048-.744-.112-1.477s0,0,0-.007c-.3-3.48-.826-6.694-1.211-8.767l-.017-.087c-.021-.116-.043-.23-.063-.338-.026-.137-.052-.268-.076-.392-.11.012-.218.023-.323.029a44.72,44.72,0,0,1-7.355-.4c-4.373-.6-8.837-3.319-11.529,1.391a20.9,20.9,0,0,0-2.982,11.131c-.127,4.467,1.2,8.5.994,13.517a31.149,31.149,0,0,1-.51,3.731,21.489,21.489,0,0,1-1.5,6.285c-.12.305-.244.61-.377.917s-.273.6-.421.888a22.477,22.477,0,0,1-5.966,7.046q-.216.175-.432.345l-.164.128-.125.1-.2.147a98.518,98.518,0,0,0,6.659,7.453c.027.025.053.052.08.077,2.263,2.158,3.623,7.2,3.623,7.2s-6.56,6.758-8.547,11.131a39.916,39.916,0,0,0-3.376,12.891c-.4,4.2,8.544,1.42,11.923-1.76.1-.09.193-.186.292-.285a1.508,1.508,0,1,1,1.956-2.291,41.2,41.2,0,0,0,4.226-7.075,1.761,1.761,0,1,1,1.325-3.1,36.71,36.71,0,0,0,2.339-9.715c.4-4.373-2.226-6.017-9.788-10.314,0,0-.135-.091-.343-.26A7.115,7.115,0,0,1,1065.094,217.694Zm9.461-40.851c2.466-.074,4.546,2.544,4.645,5.848s-1.818,6.043-4.284,6.117-4.545-2.544-4.645-5.848S1072.09,176.917,1074.556,176.843Zm-7.827,68.922a.785.785,0,1,1-.785-.785A.786.786,0,0,1,1066.729,245.765Zm-1.485-5.324a1.077,1.077,0,1,1-1.077,1.077A1.078,1.078,0,0,1,1065.244,240.441Zm-4.554,13.529a.786.786,0,0,1-.778.69.757.757,0,0,1-.1-.006.785.785,0,1,1,.874-.684Zm.159-2.785a.641.641,0,1,1,.636.718.621.621,0,0,1-.078,0A.641.641,0,0,1,1060.849,251.184Zm2.462,2.806a1.065,1.065,0,1,1-.219-.786A1.06,1.06,0,0,1,1063.311,253.99Zm1.038-1.925a1.257,1.257,0,1,1,1.257-1.257A1.258,1.258,0,0,1,1064.349,252.065Zm4.379-4.413a.64.64,0,1,1,.64-.64A.641.641,0,0,1,1068.728,247.652Zm2.147-12.71a1.64,1.64,0,1,1-1.64,1.64A1.642,1.642,0,0,1,1070.874,234.941Zm-1.956,3.953a1.353,1.353,0,1,1-1.353,1.353A1.355,1.355,0,0,1,1068.918,238.894Zm.069,3.3a1.43,1.43,0,1,1-1.43,1.43A1.432,1.432,0,0,1,1068.987,242.2Zm-1.681,5.892a1.066,1.066,0,1,1-1.066-1.066A1.067,1.067,0,0,1,1067.306,248.088Z" transform="translate(-1009.264 -169)" fill="#9bb236"/>
  <path id="Path_480" data-name="Path 480" d="M1145.541,1845.04l-.048,0a.388.388,0,0,0-.046.772h0a.388.388,0,0,0,.094-.77Z" transform="translate(-1094.847 -1760.55)" fill="#9bb236"/>
  <path id="Path_481" data-name="Path 481" d="M1293.635,1783.852a1.112,1.112,0,0,0,.476.911c.451-.476.934-1.041,1.435-1.686a1.112,1.112,0,0,0-1.911.774Z" transform="translate(-1235.889 -1701.393)" fill="#9bb236"/>
  <path id="Path_482" data-name="Path 482" d="M1186.755,1839.224a.668.668,0,0,0-.161,1.326.668.668,0,0,0,.161-1.326Z" transform="translate(-1133.685 -1755.026)" fill="#9bb236"/>
  <path id="Path_483" data-name="Path 483" d="M1265.1,1725.356a.668.668,0,1,0,.668-.668A.669.669,0,0,0,1265.1,1725.356Z" transform="translate(-1208.79 -1646.268)" fill="#9bb236"/>
  <circle id="Ellipse_27" data-name="Ellipse 27" cx="0.859" cy="0.859" r="0.859" transform="translate(54.225 80.949)" fill="#9bb236"/>
  <path id="Path_484" data-name="Path 484" d="M1179.6,1796.516a.241.241,0,0,0,.092-.162.243.243,0,0,0-.212-.271l-.03,0a.243.243,0,1,0,.15.434Z" transform="translate(-1127.226 -1714.063)" fill="#9bb236"/>
  <path id="Path_485" data-name="Path 485" d="M1313.387,1631.018a1.033,1.033,0,1,0-1.033-1.033A1.034,1.034,0,0,0,1313.387,1631.018Z" transform="translate(-1253.664 -1555.359)" fill="#9bb236"/>
  <path id="Path_486" data-name="Path 486" d="M1305.986,1558.263a1.353,1.353,0,1,0-1.353-1.353A1.355,1.355,0,0,0,1305.986,1558.263Zm0-2.308a.955.955,0,1,1-.955.956A.956.956,0,0,1,1305.986,1555.955Z" transform="translate(-1246.332 -1485.662)" fill="#4d5c25"/>
  <path id="Path_487" data-name="Path 487" d="M1238.3,1588.389a1.077,1.077,0,1,0-1.077-1.077A1.078,1.078,0,0,0,1238.3,1588.389Zm0-1.756a.679.679,0,1,1-.679.679A.68.68,0,0,1,1238.3,1586.633Z" transform="translate(-1182.321 -1514.795)" fill="#4d5c25"/>
  <path id="Path_488" data-name="Path 488" d="M1305.9,1623.926a1.43,1.43,0,1,0-1.43-1.43A1.432,1.432,0,0,0,1305.9,1623.926Zm0-2.463a1.033,1.033,0,1,1-1.033,1.033A1.034,1.034,0,0,1,1305.9,1621.463Z" transform="translate(-1246.175 -1547.87)" fill="#4d5c25"/>
  <path id="Path_489" data-name="Path 489" d="M1389.019,1574.886a1.764,1.764,0,0,0,1.572,1.751q.091-.193.182-.387a1.364,1.364,0,1,1,.988-2.311c.052-.133.1-.265.155-.4a1.76,1.76,0,0,0-2.9,1.346Z" transform="translate(-1326.464 -1502.344)" fill="#4d5c25"/>
  <path id="Path_490" data-name="Path 490" d="M1256.9,1677.057a.785.785,0,1,0,.785-.785A.786.786,0,0,0,1256.9,1677.057Zm1.173,0a.387.387,0,1,1-.387-.388A.388.388,0,0,1,1258.074,1677.057Z" transform="translate(-1201.007 -1600.292)" fill="#4d5c25"/>
  <path id="Path_491" data-name="Path 491" d="M1315.632,1703.874a.641.641,0,1,0,.641.641A.641.641,0,0,0,1315.632,1703.874Zm0,.883a.243.243,0,1,1,.243-.243A.243.243,0,0,1,1315.632,1704.757Z" transform="translate(-1256.169 -1626.503)" fill="#4d5c25"/>
  <path id="Path_492" data-name="Path 492" d="M1257.21,1717.866a1.066,1.066,0,1,0,1.066-1.066A1.067,1.067,0,0,0,1257.21,1717.866Zm1.734,0a.668.668,0,1,1-.668-.668A.669.669,0,0,1,1258.944,1717.866Z" transform="translate(-1201.3 -1638.778)" fill="#4d5c25"/>
  <path id="Path_493" data-name="Path 493" d="M1285.748,1776.362a1.507,1.507,0,0,0,.6,1.2c.091-.091.184-.188.278-.287a1.112,1.112,0,1,1,1.435-1.686c.081-.1.161-.21.243-.318a1.508,1.508,0,0,0-2.551,1.092Z" transform="translate(-1228.399 -1693.903)" fill="#4d5c25"/>
  <path id="Path_494" data-name="Path 494" d="M1217.148,1766.966a1.257,1.257,0,1,0,1.257,1.257A1.258,1.258,0,0,0,1217.148,1766.966Zm0,2.116a.859.859,0,1,1,.859-.859A.861.861,0,0,1,1217.148,1769.082Z" transform="translate(-1162.064 -1686.415)" fill="#4d5c25"/>
  <path id="Path_495" data-name="Path 495" d="M1138.1,1837.154a.785.785,0,1,0-.19,1.558.75.75,0,0,0,.1.006.785.785,0,0,0,.094-1.564Zm.29.826a.389.389,0,0,1-.432.338h0a.388.388,0,0,1,.046-.772.368.368,0,0,1,.048,0,.388.388,0,0,1,.338.431Z" transform="translate(-1087.357 -1753.058)" fill="#4d5c25"/>
  <path id="Path_496" data-name="Path 496" d="M1171.958,1789.474a.64.64,0,0,0,.077-1.276.64.64,0,0,0-.155,1.271A.625.625,0,0,0,1171.958,1789.474Zm-.242-.67a.243.243,0,0,1,.241-.213h.03a.244.244,0,0,1,.211.271.241.241,0,0,1-.091.162.243.243,0,0,1-.391-.221Z" transform="translate(-1119.737 -1706.572)" fill="#4d5c25"/>
  <path id="Path_497" data-name="Path 497" d="M1179.315,1831.341a1.065,1.065,0,1,0-.258,2.115,1.032,1.032,0,0,0,.131.008,1.065,1.065,0,0,0,.127-2.123Zm.534,1.138a.669.669,0,1,1-.137-.492A.665.665,0,0,1,1179.85,1832.479Z" transform="translate(-1126.198 -1747.537)" fill="#4d5c25"/>
  <path id="Path_498" data-name="Path 498" d="M664.785,1081.748c-.074-.282-.145-.565-.211-.849-.073-.317-.138-.635-.2-.954a71.289,71.289,0,0,1-9.819,5.475,16.812,16.812,0,0,0-.176,2.612c0,.361.017.723.044,1.083.023.314.057.628.1.94.025.188.052.376.083.564.028.169.056.338.089.506l.345-.111q.9-.293,1.849-.625c2.277-.8,4.731-1.78,7.367-2.952l.558-.25q.761-.343,1.542-.707-.347-.9-.665-1.8C665.352,1083.712,665.044,1082.737,664.785,1081.748Z" transform="translate(-628.857 -1034.026)" fill="#654040"/>
  <path id="Path_499" data-name="Path 499" d="M1205.585,647.391c-.006.113-.01.227-.017.34-.015.234-.036.467-.055.7a21.5,21.5,0,0,0,1.5-6.285c.249-3.625-.8-6.531-3.256-7.628A33.914,33.914,0,0,1,1205.585,647.391Z" transform="translate(-1150.54 -611.053)" fill="#654040"/>
  <path id="Path_500" data-name="Path 500" d="M871.635,887.08q-.212-1.176-.358-2.363a18.7,18.7,0,0,1-3.369,5.682,14.52,14.52,0,0,1-1.025,1.037q-.228.208-.468.409c-.1.086-.205.173-.311.257-.916.724-1.867,1.422-2.841,2.092.107.584.236,1.163.38,1.738.266,1.056.59,2.1.95,3.129q.312.9.654,1.78,1.009-.477,2.049-.987c.369-.182,1.319-.616,2.579-1.3.193-.105.394-.217.6-.335a37.894,37.894,0,0,0,3.737-2.414q-.134-.321-.263-.644A41.778,41.778,0,0,1,871.635,887.08Z" transform="translate(-827.211 -848.639)" fill="#654040"/>
  <path id="Path_501" data-name="Path 501" d="M321.1,1269.835q.042-.82.161-1.633.1-.707.262-1.4c.006-.024.01-.048.015-.072.076-.325.161-.65.256-.972a19.589,19.589,0,0,1-2.887.5c-.272.022-.526.052-.768.089-3.32.5-3.816,2.285-1.153,3.095a10.728,10.728,0,0,0,2.716.394C320.145,1269.85,320.612,1269.849,321.1,1269.835Z" transform="translate(-306.845 -1210.469)" fill="#654040"/>
  <path id="Path_502" data-name="Path 502" d="M1031.838,639.49a41.129,41.129,0,0,0,2.428,8.885l.075.185c.017.043.034.086.052.129l.015.037c.021.051.041.1.062.154l.125-.1.164-.128q.216-.169.432-.345a22.477,22.477,0,0,0,5.965-7.046c.046-.326.085-.653.121-.981a33.372,33.372,0,0,0-.952-12.31c-.245-.908-.533-1.8-.855-2.687a6.264,6.264,0,0,0-1.67-.216c-3.744,0-4.187,5.064-5.875,10.554-.129.421-.265.845-.412,1.269Q1031.634,638.2,1031.838,639.49Z" transform="translate(-986.982 -602.08)" fill="#654040"/>
  <path id="Path_503" data-name="Path 503" d="M452.793,1197.966c-.031-.373-.049-.746-.056-1.12a17.435,17.435,0,0,1,.128-2.5c-1.09.491-2.161.942-3.2,1.35q-.292.115-.58.226a54.357,54.357,0,0,1-5.657,1.854c-.118.369-.219.742-.312,1.118-.022.091-.047.181-.068.273-.091.4-.164.8-.225,1.2-.082.541-.14,1.084-.169,1.631l.044,0c.227-.012.46-.029.695-.047a37.131,37.131,0,0,0,4.829-.734c1.5-.322,3.115-.744,4.846-1.279-.035-.173-.064-.346-.093-.52Q452.854,1198.7,452.793,1197.966Z" transform="translate(-427.807 -1142.662)" fill="#654040"/>
  <path id="Path_504" data-name="Path 504" d="M1191.15,644.344c-.036.327-.075.655-.121.981.148-.291.29-.587.421-.888s.258-.612.377-.917c.02-.233.041-.466.055-.7.007-.113.011-.227.017-.34a33.913,33.913,0,0,0-1.829-12.872,5.088,5.088,0,0,0-.727-.261c.322.884.609,1.779.855,2.688A33.372,33.372,0,0,1,1191.15,644.344Z" transform="translate(-1136.855 -606.141)" fill="#482c2b"/>
  <path id="Path_505" data-name="Path 505" d="M592.357,952.984c-.145-.575-.273-1.154-.38-1.738.974-.671,1.926-1.369,2.841-2.093.107-.084.208-.171.312-.257a49.511,49.511,0,0,0-6.835-3.6c-.421-.175-.847-.339-1.275-.495a24.053,24.053,0,0,1-9.187,3.258,57.813,57.813,0,0,0-.115,9.5q.039.583.068,1.167c1.036-.409,2.107-.86,3.2-1.35a17.436,17.436,0,0,0-.128,2.5c.007.374.025.747.056,1.12q.061.731.185,1.456c.029.174.059.347.093.52l.3-.095.27-.084c-.033-.168-.061-.338-.089-.507-.031-.187-.058-.375-.083-.564-.041-.313-.074-.626-.1-.94-.027-.361-.041-.722-.044-1.084a16.814,16.814,0,0,1,.175-2.612,71.3,71.3,0,0,0,9.819-5.475c.061.319.126.637.2.954.066.284.137.567.211.849.26.989.567,1.964.9,2.929q.318.907.665,1.8l.538-.253q-.341-.885-.654-1.78C592.947,955.082,592.623,954.04,592.357,952.984Z" transform="translate(-555.925 -905.69)" fill="#482c2b"/>
</svg>
