<svg xmlns="http://www.w3.org/2000/svg" xmlns:xlink="http://www.w3.org/1999/xlink" viewBox="0 0 162.06 168.14">
  <defs>
    <style>
      .cls-1 {
        fill: none;
      }

      .cls-2 {
        isolation: isolate;
      }

      .cls-3 {
        opacity: 0.5;
      }

      .cls-4 {
        clip-path: url(#clip-path);
      }

      .cls-5 {
        fill: #cbc9e6;
      }

      .cls-6 {
        fill: #210;
      }

      .cls-7 {
        fill: #efbfa5;
      }

      .cls-41, .cls-8 {
        mix-blend-mode: multiply;
      }

      .cls-9 {
        clip-path: url(#clip-path-2);
      }

      .cls-10 {
        fill: #dadada;
      }

      .cls-11 {
        fill: #9d2f34;
      }

      .cls-12 {
        fill: #432918;
      }

      .cls-13 {
        fill: #271504;
      }

      .cls-14 {
        opacity: 0.2;
      }

      .cls-15 {
        clip-path: url(#clip-path-3);
      }

      .cls-16 {
        clip-path: url(#clip-path-4);
      }

      .cls-17 {
        clip-path: url(#clip-path-5);
      }

      .cls-18 {
        clip-path: url(#clip-path-6);
      }

      .cls-19 {
        clip-path: url(#clip-path-7);
      }

      .cls-20 {
        clip-path: url(#clip-path-8);
      }

      .cls-21 {
        clip-path: url(#clip-path-9);
      }

      .cls-22 {
        clip-path: url(#clip-path-10);
      }

      .cls-23 {
        clip-path: url(#clip-path-11);
      }

      .cls-24 {
        clip-path: url(#clip-path-12);
      }

      .cls-25 {
        clip-path: url(#clip-path-13);
      }

      .cls-26 {
        clip-path: url(#clip-path-14);
      }

      .cls-27 {
        clip-path: url(#clip-path-15);
      }

      .cls-28 {
        clip-path: url(#clip-path-16);
      }

      .cls-29 {
        clip-path: url(#clip-path-17);
      }

      .cls-30 {
        clip-path: url(#clip-path-18);
      }

      .cls-31 {
        clip-path: url(#clip-path-19);
      }

      .cls-32 {
        clip-path: url(#clip-path-20);
      }

      .cls-33 {
        clip-path: url(#clip-path-21);
      }

      .cls-34 {
        clip-path: url(#clip-path-22);
      }

      .cls-35 {
        fill: #d3a57d;
      }

      .cls-36 {
        fill: #fff;
      }

      .cls-37 {
        fill: #1e0e00;
      }

      .cls-38 {
        fill: #64350d;
      }

      .cls-39 {
        fill: #1d1d1b;
      }

      .cls-40 {
        clip-path: url(#clip-path-23);
      }

      .cls-41 {
        opacity: 0.71;
      }

      .cls-42 {
        clip-path: url(#clip-path-24);
      }

      .cls-43 {
        fill: #f29699;
      }

      .cls-44 {
        fill: #805250;
      }

      .cls-45 {
        clip-path: url(#clip-path-25);
      }
    </style>
    <clipPath id="clip-path" transform="translate(0 0)">
      <rect class="cls-1" width="162.06" height="168.14"/>
    </clipPath>
    <clipPath id="clip-path-2" transform="translate(0 0)">
      <rect class="cls-1" x="71.2" y="86.68" width="26.18" height="11.46"/>
    </clipPath>
    <clipPath id="clip-path-3" transform="translate(0 0)">
      <rect class="cls-1" x="68.33" y="63.12" width="0.61" height="0.6"/>
    </clipPath>
    <clipPath id="clip-path-4" transform="translate(0 0)">
      <rect class="cls-1" x="68.46" y="60.49" width="0.96" height="0.93"/>
    </clipPath>
    <clipPath id="clip-path-5" transform="translate(0 0)">
      <rect class="cls-1" x="70.72" y="61.86" width="0.96" height="0.93"/>
    </clipPath>
    <clipPath id="clip-path-6" transform="translate(0 0)">
      <rect class="cls-1" x="72.58" y="60.02" width="0.96" height="0.93"/>
    </clipPath>
    <clipPath id="clip-path-7" transform="translate(0 0)">
      <rect class="cls-1" x="75.33" y="61.71" width="0.96" height="0.93"/>
    </clipPath>
    <clipPath id="clip-path-8" transform="translate(0 0)">
      <rect class="cls-1" x="75.11" y="58.02" width="0.7" height="0.68"/>
    </clipPath>
    <clipPath id="clip-path-9" transform="translate(0 0)">
      <rect class="cls-1" x="65.67" y="59.66" width="0.82" height="0.79"/>
    </clipPath>
    <clipPath id="clip-path-10" transform="translate(0 0)">
      <rect class="cls-1" x="64.65" y="62.59" width="0.69" height="0.67"/>
    </clipPath>
    <clipPath id="clip-path-11" transform="translate(0 0)">
      <rect class="cls-1" x="66.73" y="64.76" width="0.72" height="0.7"/>
    </clipPath>
    <clipPath id="clip-path-12" transform="translate(0 0)">
      <rect class="cls-1" x="62.15" y="61.04" width="0.96" height="0.93"/>
    </clipPath>
    <clipPath id="clip-path-13" transform="translate(0 0)">
      <rect class="cls-1" x="72.89" y="63.76" width="0.96" height="0.93"/>
    </clipPath>
    <clipPath id="clip-path-14" transform="translate(0 0)">
      <rect class="cls-1" x="92.79" y="58.92" width="0.96" height="0.93"/>
    </clipPath>
    <clipPath id="clip-path-15" transform="translate(0 0)">
      <rect class="cls-1" x="91.13" y="61.08" width="0.71" height="0.46"/>
    </clipPath>
    <clipPath id="clip-path-16" transform="translate(0 0)">
      <rect class="cls-1" x="95.37" y="61.8" width="0.54" height="0.52"/>
    </clipPath>
    <clipPath id="clip-path-17" transform="translate(0 0)">
      <rect class="cls-1" x="92.59" y="62.18" width="0.96" height="0.93"/>
    </clipPath>
    <clipPath id="clip-path-18" transform="translate(0 0)">
      <rect class="cls-1" x="89.63" y="58.76" width="0.82" height="0.79"/>
    </clipPath>
    <clipPath id="clip-path-19" transform="translate(0 0)">
      <rect class="cls-1" x="96.98" y="59.03" width="0.96" height="0.93"/>
    </clipPath>
    <clipPath id="clip-path-20" transform="translate(0 0)">
      <rect class="cls-1" x="98.5" y="61.39" width="0.96" height="0.93"/>
    </clipPath>
    <clipPath id="clip-path-21" transform="translate(0 0)">
      <rect class="cls-1" x="100.95" y="59.16" width="0.71" height="0.69"/>
    </clipPath>
    <clipPath id="clip-path-22" transform="translate(0 0)">
      <rect class="cls-1" x="96.37" y="63.43" width="0.96" height="0.93"/>
    </clipPath>
    <clipPath id="clip-path-23" transform="translate(0 0)">
      <rect class="cls-1" x="78.22" y="51.19" width="11.61" height="17.48"/>
    </clipPath>
    <clipPath id="clip-path-24" transform="translate(0 0)">
      <rect class="cls-1" x="75.58" y="75.91" width="15.83" height="2.73"/>
    </clipPath>
    <clipPath id="clip-path-25" transform="translate(0 0)">
      <rect class="cls-1" x="75.93" y="78.54" width="15.5" height="3.11"/>
    </clipPath>
  </defs>
  <title>brecht</title>
  <g class="cls-2">
    <g id="Laag_2" data-name="Laag 2">
      <g id="Laag_1-2" data-name="Laag 1">
        <g>
          <g class="cls-3">
            <g class="cls-4">
              <path class="cls-5" d="M162.06,84.07c0,46.43-36.28,84.07-81,84.07S0,130.5,0,84.07,36.28,0,81,0s81,37.64,81,84.07" transform="translate(0 0)"/>
            </g>
          </g>
          <g>
            <rect class="cls-6" x="48.95" y="84.07" width="23.64" height="24.37"/>
            <rect class="cls-6" x="93.2" y="82.49" width="18.42" height="24.37"/>
            <rect class="cls-7" x="71.2" y="86.68" width="26.18" height="14.91"/>
            <g class="cls-8">
              <g class="cls-9">
                <path class="cls-10" d="M78.52,98.11A23.55,23.55,0,0,0,90.06,94.6a21.55,21.55,0,0,0,6.34-5.89c.31-.45.66-1,1-1.5v-.53H71.2V97.83a54.37,54.37,0,0,0,7.32.28" transform="translate(0 0)"/>
              </g>
            </g>
            <path class="cls-7" d="M117.87,46.08c0-23.91-15.05-37.65-33.65-37.76h-.4c-18.6.11-33.65,13.85-33.65,37.76,0,31,23.45,49.09,33.81,49.17h.08c10.36-.08,33.81-18.16,33.81-49.17" transform="translate(0 0)"/>
            <path class="cls-7" d="M113.49,54.93,111.62,69c7.33,3.18,8.48-13.4,8.48-13.4-1.7-4.13-6.61-.69-6.61-.69" transform="translate(0 0)"/>
            <path class="cls-7" d="M48.77,55.62S49.92,72.2,57.25,69L55.39,54.93s-4.92-3.44-6.62.69" transform="translate(0 0)"/>
            <path class="cls-7" d="M71.09,100.45l-31.48,9.6s-11,1.93-13.83,13.24l-2.73,19.52,60.69,1h.56L142.37,139q0-7.84-.1-15.71c-2.82-11.31-13.84-13.24-13.84-13.24L97,100.45Z" transform="translate(0 0)"/>
            <path class="cls-11" d="M142.37,139q0-7.84-.1-15.71c-2.82-11.31-13.84-13.24-13.84-13.24L115,106s5.67,14.11-20.65,24.5c0,0-7.72,2.31-10.16,8L84,139l-.16-.52c-2.45-5.69-10.17-8-10.17-8C47.35,120.08,53,106,53,106l-13.4,4.08s-11,1.93-13.83,13.24l-2.73,19.52c3.26,3.5,25,26.15,59.93,25.31,35.61-.86,56.45-25.51,59.39-29.12" transform="translate(0 0)"/>
            <path class="cls-12" d="M102.9,42.47c.54,2.21,1.1,4.86,1.56,7.86,0,0,.7,4.52.94,8.78.61,11.21-2.34,14.47-2,27.38.11,4.35.44,4,.34,7.06-.29,8.64-2.94,11.51-4,18.4-.56,3.8-1.5,10.13,1.92,16.9.49,1,6.23,11.88,17.53,13.57,1.34.2,6.92,1.17,9.55-1.48,1.59-1.62,1.95-3.76,1.45-7.78-.69-5.51-1-8.26-3.81-14.15-6.56-13.87,5.15-19.23.2-39.68-1.2-5-2.82-8.51-3.68-16.09-.71-6.2-.31-9.86-.34-13.5-.06-6.24-1.43-15.13-7.39-26.29" transform="translate(0 0)"/>
            <path class="cls-13" d="M63.79,25s25.1-12.62,34.38,12.63c0,0,3.75-38.58-34.38-12.63" transform="translate(0 0)"/>
            <path class="cls-12" d="M67.38,10.68S63.47,21.07,65.27,24c-.73,2.47-1.56,5-2.54,7.64A116.06,116.06,0,0,1,51.79,53.59s-1.12-.29-2.56,1.19A144.36,144.36,0,0,1,48,36.2c0-10.65,1.14-13.31,1.93-14.75,3.9-7.06,12.59-9.73,17.46-10.77" transform="translate(0 0)"/>
            <path class="cls-12" d="M63.79,25s30.39-22,33.59,10c0,0,4.66,20.38,19.33,18.63A38.88,38.88,0,0,0,119,40.77a40.4,40.4,0,0,0-6.23-21.61,35.15,35.15,0,0,0-11.69-10.3A38.24,38.24,0,0,0,81.67,4.3,18.3,18.3,0,0,0,69.74,7.36C64.38,11.22,62.05,18.15,63.79,25" transform="translate(0 0)"/>
            <path class="cls-6" d="M53,68.43s2.11,22.72,18.19,29.4V89.45s-11-9.71-15.14-20.08A3.72,3.72,0,0,1,53,68.43" transform="translate(0 0)"/>
            <path class="cls-12" d="M57.71,43.19A35.11,35.11,0,0,0,55.4,53.41c-.44,6.19,1,9.83,3.13,20.83.56,2.87,1,5.88,2,11.91,2.1,13.06,3.15,19.59,3,23.34-.2,5.25-.68,14.45-7.13,22.82a24.19,24.19,0,0,1-11.54,8.92c-1.6.55-9.76,3.33-14.81-.66a9.22,9.22,0,0,1-3.2-5.49c-.52-3.52,1.62-6,4-10a68.24,68.24,0,0,0,5.6-12.56c2.55-8.08-.59-10.66,0-22.37.38-7.34,1.63-6.55,2.92-16.29,1.78-13.51-.35-17.15.91-26.71a60.32,60.32,0,0,1,8.89-24" transform="translate(0 0)"/>
            <g class="cls-14">
              <g class="cls-15">
                <path class="cls-12" d="M68.94,63.42a.3.3,0,0,1-.31.3.3.3,0,1,1,0-.59.3.3,0,0,1,.31.29" transform="translate(0 0)"/>
              </g>
            </g>
            <g class="cls-14">
              <g class="cls-16">
                <path class="cls-12" d="M69.42,61a.47.47,0,0,1-.48.47.47.47,0,1,1,0-.93.47.47,0,0,1,.48.46" transform="translate(0 0)"/>
              </g>
            </g>
            <g class="cls-14">
              <g class="cls-17">
                <path class="cls-12" d="M71.68,62.33a.48.48,0,0,1-.48.46.47.47,0,1,1,0-.93.48.48,0,0,1,.48.47" transform="translate(0 0)"/>
              </g>
            </g>
            <g class="cls-14">
              <g class="cls-18">
                <path class="cls-12" d="M73.54,60.49a.48.48,0,0,1-.48.46.47.47,0,1,1,0-.93.48.48,0,0,1,.48.47" transform="translate(0 0)"/>
              </g>
            </g>
            <g class="cls-14">
              <g class="cls-19">
                <path class="cls-12" d="M76.29,62.18a.47.47,0,0,1-.48.46.47.47,0,1,1,.48-.46" transform="translate(0 0)"/>
              </g>
            </g>
            <g class="cls-14">
              <g class="cls-20">
                <path class="cls-12" d="M75.81,58.36a.35.35,0,0,1-.35.34.35.35,0,0,1-.35-.34.35.35,0,0,1,.35-.34.34.34,0,0,1,.35.34" transform="translate(0 0)"/>
              </g>
            </g>
            <g class="cls-14">
              <g class="cls-21">
                <path class="cls-12" d="M66.49,60.06a.4.4,0,0,1-.41.4.4.4,0,1,1,0-.8.4.4,0,0,1,.41.4" transform="translate(0 0)"/>
              </g>
            </g>
            <g class="cls-14">
              <g class="cls-22">
                <path class="cls-12" d="M65.34,62.92a.35.35,0,0,1-.35.34.34.34,0,1,1,0-.67.34.34,0,0,1,.35.33" transform="translate(0 0)"/>
              </g>
            </g>
            <g class="cls-14">
              <g class="cls-23">
                <path class="cls-12" d="M67.45,65.12a.36.36,0,1,1-.36-.36.36.36,0,0,1,.36.36" transform="translate(0 0)"/>
              </g>
            </g>
            <g class="cls-14">
              <g class="cls-24">
                <path class="cls-12" d="M63.11,61.51a.48.48,0,0,1-.48.46.47.47,0,1,1,0-.93.48.48,0,0,1,.48.47" transform="translate(0 0)"/>
              </g>
            </g>
            <g class="cls-14">
              <g class="cls-25">
                <path class="cls-12" d="M73.85,64.22a.48.48,0,0,1-.48.47.47.47,0,1,1,.48-.47" transform="translate(0 0)"/>
              </g>
            </g>
            <g class="cls-14">
              <g class="cls-26">
                <path class="cls-12" d="M93.75,59.38a.48.48,0,0,1-.48.47.47.47,0,1,1,.48-.47" transform="translate(0 0)"/>
              </g>
            </g>
            <g class="cls-14">
              <g class="cls-27">
                <path class="cls-12" d="M91.84,61.31c0,.13-.16.24-.36.24s-.35-.11-.35-.24.16-.23.35-.23.36.1.36.23" transform="translate(0 0)"/>
              </g>
            </g>
            <g class="cls-14">
              <g class="cls-28">
                <path class="cls-12" d="M95.92,62.06a.28.28,0,0,1-.28.27.27.27,0,1,1,0-.53.28.28,0,0,1,.28.26" transform="translate(0 0)"/>
              </g>
            </g>
            <g class="cls-14">
              <g class="cls-29">
                <path class="cls-12" d="M93.55,62.64a.47.47,0,0,1-.48.47.48.48,0,0,1-.48-.47.47.47,0,0,1,.48-.46.46.46,0,0,1,.48.46" transform="translate(0 0)"/>
              </g>
            </g>
            <g class="cls-14">
              <g class="cls-30">
                <path class="cls-12" d="M90.45,59.16a.41.41,0,0,1-.82,0,.41.41,0,0,1,.82,0" transform="translate(0 0)"/>
              </g>
            </g>
            <g class="cls-14">
              <g class="cls-31">
                <path class="cls-12" d="M97.94,59.5a.47.47,0,0,1-.48.46.47.47,0,1,1,.48-.46" transform="translate(0 0)"/>
              </g>
            </g>
            <g class="cls-14">
              <g class="cls-32">
                <path class="cls-12" d="M99.46,61.86a.48.48,0,0,1-.48.47.47.47,0,1,1,0-.94.48.48,0,0,1,.48.47" transform="translate(0 0)"/>
              </g>
            </g>
            <g class="cls-14">
              <g class="cls-33">
                <path class="cls-12" d="M101.66,59.51a.36.36,0,0,1-.71,0,.36.36,0,0,1,.71,0" transform="translate(0 0)"/>
              </g>
            </g>
            <g class="cls-14">
              <g class="cls-34">
                <path class="cls-12" d="M97.33,63.89a.48.48,0,0,1-.48.47.47.47,0,0,1-.48-.47.46.46,0,0,1,.48-.46.47.47,0,0,1,.48.46" transform="translate(0 0)"/>
              </g>
            </g>
            <path class="cls-35" d="M102.67,52.48s-8.37-7-14,.39a1.26,1.26,0,0,0-.13.91s-.69-1.28-.06-1.89c0,0,2.71-6.78,9.19-5.55a7.13,7.13,0,0,1,5,5.17v1" transform="translate(0 0)"/>
            <path class="cls-36" d="M89,52.28a10.06,10.06,0,0,1,1.52-1.89,7.36,7.36,0,0,1,6.09-2.06s2.74.08,5.08,4.65c0,0-2.94,3.2-11.38.65,0,0-1.09-.1-1.52.33-.07.07-.22-.13-.25-.18a1,1,0,0,1,.13-.91,5.6,5.6,0,0,1,.33-.59" transform="translate(0 0)"/>
            <path class="cls-37" d="M97.9,51.48c0,1.8-1.14,3.26-2.56,3.26s-2.55-1.46-2.55-3.26,1.14-3.27,2.55-3.27,2.56,1.46,2.56,3.27" transform="translate(0 0)"/>
            <path class="cls-12" d="M97.62,51.48c0,1.6-1,2.9-2.28,2.9s-2.27-1.3-2.27-2.9,1-2.91,2.27-2.91,2.28,1.31,2.28,2.91" transform="translate(0 0)"/>
            <path class="cls-38" d="M97.18,51.48a1.89,1.89,0,1,1-1.84-2.35,2.14,2.14,0,0,1,1.84,2.35" transform="translate(0 0)"/>
            <path class="cls-38" d="M95.25,53.8l-.17,0,.26-2.3h0l-.45,2.25a.67.67,0,0,1-.18-.07l.63-2.18-.8,2.09-.16-.11,1-2h0l-1.11,1.84a.67.67,0,0,1-.14-.15l1.25-1.69h0L94,53l-.12-.18,1.49-1.34-1.59,1.14c0-.07,0-.14-.08-.22l1.66-.92-1.72.7a1.55,1.55,0,0,1,0-.23l1.78-.47-1.81.24a1.93,1.93,0,0,1,0-.24h1.82l-1.81-.23a2,2,0,0,1,0-.24l1.77.46-1.72-.69a1.41,1.41,0,0,1,.06-.22l1.67.91-1.59-1.12a1.36,1.36,0,0,1,.1-.21l1.49,1.33h0L94,50l.13-.17,1.26,1.69h0l-1.12-1.83a1,1,0,0,1,.15-.14l1,2h0l-.8-2.09.17-.09.63,2.18h0l-.46-2.25.18,0,.28,2.3h0Zm.19,0-.09-2.33-.1-2.32h.18l-.08,2.33h0l.27,2.3-.18,0m.36-.07-.45-2.25h0l1,2-.16.12-.8-2.09h0L96,53.66l-.18.07m.66-.41-1.11-1.84,1.26,1.69-.15.15m.27-.32-1.37-1.52h0l1.49,1.33-.12.19m.21-.39-1.58-1.13h0l.26-2.3.18,0-.44,2.25h0L96,49.29a.91.91,0,0,1,.17.09l-.79,2.09,1-2a1,1,0,0,1,.16.12l-1.11,1.85h0l1.24-1.69a1.09,1.09,0,0,1,.13.17l-1.37,1.52h0l1.48-1.34.1.2-1.57,1.14L97,50.54a2,2,0,0,1,.07.23l-1.72.7L97.14,51l0,.24-1.81.24h0l1.77.47a1.74,1.74,0,0,1,0,.22l-1.72-.69L97,52.4l-.09.21m.23-.9-1.8-.23h1.81c0,.07,0,.15,0,.23" transform="translate(0 0)"/>
            <path class="cls-39" d="M96.34,51.48a1,1,0,1,1-1-1.27,1.16,1.16,0,0,1,1,1.27" transform="translate(0 0)"/>
            <path class="cls-36" d="M96.62,50.21a.51.51,0,1,1-1,0,.51.51,0,1,1,1,0" transform="translate(0 0)"/>
            <path class="cls-36" d="M95.88,51.2a.26.26,0,1,1-.5,0,.26.26,0,1,1,.5,0" transform="translate(0 0)"/>
            <path d="M101.66,53S99,48.66,95.89,49c0,0-2.85-.63-6.92,3.28A8.42,8.42,0,0,1,94.64,48s4.56-1.22,8,4.53Z" transform="translate(0 0)"/>
            <path class="cls-35" d="M62.63,52.48s8.37-7,14,.39a1.26,1.26,0,0,1,.13.91s.69-1.28.06-1.89c0,0-2.71-6.78-9.19-5.55,0,0-4.5,1.5-5,6.14h0" transform="translate(0 0)"/>
            <path class="cls-36" d="M76.32,52.28a9.57,9.57,0,0,0-1.51-1.89,7.39,7.39,0,0,0-6.09-2.06S66,48.41,63.64,53c0,0,2.94,3.2,11.39.65,0,0,1.09-.1,1.51.33.07.07.22-.13.25-.18a1.08,1.08,0,0,0-.13-.91,4.3,4.3,0,0,0-.34-.59" transform="translate(0 0)"/>
            <path class="cls-37" d="M67.4,51.48c0,1.8,1.15,3.26,2.56,3.26s2.55-1.46,2.55-3.26S71.37,48.21,70,48.21s-2.56,1.46-2.56,3.27" transform="translate(0 0)"/>
            <path class="cls-12" d="M67.69,51.48c0,1.6,1,2.9,2.27,2.9s2.27-1.3,2.27-2.9-1-2.91-2.27-2.91-2.27,1.31-2.27,2.91" transform="translate(0 0)"/>
            <path class="cls-38" d="M68.13,51.48A1.89,1.89,0,1,0,70,49.13a2.13,2.13,0,0,0-1.83,2.35" transform="translate(0 0)"/>
            <path class="cls-38" d="M70,51.48h0l.28-2.3.18,0L70,51.47h0l.63-2.18.18.09L70,51.47l1-2,.15.13L70,51.47h0l1.26-1.69.13.17L70,51.48h0l1.5-1.34a2.09,2.09,0,0,1,.1.21L70,51.47l1.67-.91a.79.79,0,0,1,.06.22L70,51.47,71.75,51a2,2,0,0,1,0,.24L70,51.48h1.82a1.93,1.93,0,0,1,0,.24L70,51.48l1.78.47a1.55,1.55,0,0,1,0,.23L70,51.48l1.66.92c0,.08-.06.15-.08.22L70,51.48l1.49,1.34-.12.18L70,51.48h0l1.25,1.69a.67.67,0,0,1-.14.15L70,51.48h0l1,2-.16.11L70,51.48l.63,2.18-.18.07L70,51.48h0l.27,2.3-.19,0Zm-.28,2.3.27-2.3h0l-.08-2.33h.18L70,51.47l-.09,2.33-.18,0m-.36-.12L70,51.48h0l-.8,2.09a.61.61,0,0,1-.16-.12l1-2h0l-.45,2.25-.18-.07m-.63-.49L70,51.48h0l-1.11,1.84-.15-.15m-.24-.36,1.49-1.33h0L68.57,53l-.12-.19m-.18-.41,1.66-.92-1.72.69a1.74,1.74,0,0,1,0-.22l1.77-.47h0l-1.81-.25,0-.24,1.77.48-1.72-.71c0-.07,0-.14.07-.22l1.65.92-1.57-1.13.1-.2,1.48,1.34h0L68.57,50l.13-.17L70,51.48h0l-1.11-1.85L69,49.5l1,2h0l-.79-2.09a.91.91,0,0,1,.17-.09L70,51.47l-.44-2.25.17,0,.27,2.3h0l-1.59,1.13-.08-.21m-.14-.92v0l1.8,0-1.8.23v-.23" transform="translate(0 0)"/>
            <path class="cls-39" d="M69,51.48a1,1,0,1,0,1-1.27,1.16,1.16,0,0,0-1,1.27" transform="translate(0 0)"/>
            <path class="cls-36" d="M68.68,50.21a.51.51,0,1,0,1,0,.51.51,0,1,0-1,0" transform="translate(0 0)"/>
            <path class="cls-36" d="M69.42,51.2a.26.26,0,1,0,.5,0,.26.26,0,1,0-.5,0" transform="translate(0 0)"/>
            <path d="M63.64,53s2.65-4.32,5.78-4c0,0,2.84-.63,6.9,3.28A8.38,8.38,0,0,0,70.66,48s-4.56-1.22-8,4.53Z" transform="translate(0 0)"/>
            <path class="cls-12" d="M77,45.74a16,16,0,0,0-6.29-3.05,16.64,16.64,0,0,0-6.83-.15s-3.1-.17-4.93,3.78a16.62,16.62,0,0,1,3.42-1.15,18.14,18.14,0,0,1,7.51,0A22.36,22.36,0,0,1,77,47.84c.07-.07.51-.54,0-2.1" transform="translate(0 0)"/>
            <g class="cls-8">
              <g class="cls-40">
                <path class="cls-10" d="M79.29,51.2A29.81,29.81,0,0,1,79,64.47s-2.75,3.39,2.26,3.39c0,0-2.14-.27-1.13-2.49a17.28,17.28,0,0,0-.81-14.17" transform="translate(0 0)"/>
                <path class="cls-10" d="M87.21,64.54s3.07,2,0,3c0,0,2.5,0,2.62-1.52,0,0-.23-1.66-2.62-1.53" transform="translate(0 0)"/>
                <path class="cls-10" d="M81.8,67.59a2.45,2.45,0,0,1,.94,0,2.39,2.39,0,0,1,.47.13,1.09,1.09,0,0,1,.42.27,1,1,0,0,0,.22.14.49.49,0,0,0,.19,0,.79.79,0,0,0,.25-.06,1.48,1.48,0,0,0,.32-.14l.32-.17a2.75,2.75,0,0,1,.46-.18,2.24,2.24,0,0,1,.72,0l.24,0-.22.07a2,2,0,0,0-.48.18.63.63,0,0,0-.18.15,2.42,2.42,0,0,1-.28.27,2,2,0,0,1-1.13.42,1.85,1.85,0,0,1-.76-.18,1.11,1.11,0,0,1-.39-.33c-.08-.09-.06-.13-.14-.19a1,1,0,0,0-.23-.15,4.87,4.87,0,0,0-.74-.24" transform="translate(0 0)"/>
              </g>
            </g>
            <path class="cls-12" d="M88.26,45.74a16,16,0,0,1,6.29-3.05,16.64,16.64,0,0,1,6.83-.15s3.1-.17,4.93,3.78a16.62,16.62,0,0,0-3.42-1.15,18.14,18.14,0,0,0-7.51,0,22.36,22.36,0,0,0-7.12,2.62c-.07-.07-.51-.54,0-2.1" transform="translate(0 0)"/>
            <g class="cls-41">
              <g class="cls-42">
                <path class="cls-43" d="M82.2,76.12a2.35,2.35,0,0,0,3.27,0s1.36-1,3.45.88a4.35,4.35,0,0,0,2.49,1.43s-1.4.57-6-.37a14.91,14.91,0,0,0-4.91.45,36.45,36.45,0,0,1-5,0,8.14,8.14,0,0,0,3.08-1.32,4.38,4.38,0,0,1,3.54-1.1" transform="translate(0 0)"/>
              </g>
            </g>
            <path class="cls-44" d="M94,77.57a8.08,8.08,0,0,1-3.39,1.59,9.94,9.94,0,0,1-3.21,0,8.4,8.4,0,0,1-1.08-.26l.09,0a14,14,0,0,0-2.33-.19,14.61,14.61,0,0,0-2.31.16h0a12.24,12.24,0,0,1-8.39-1,9.53,9.53,0,0,0,1.12.35c.18,0,.53.11,1,.17a15.78,15.78,0,0,0,2,0,14.65,14.65,0,0,0,4-.52h0a13.43,13.43,0,0,1,2.52-.23,14,14,0,0,1,2.5.26h.05l0,0a5.6,5.6,0,0,0,.9.26c.32.07.65.13,1,.17a12.24,12.24,0,0,0,2,.07,7.42,7.42,0,0,0,2-.26A5.91,5.91,0,0,0,94,77.57" transform="translate(0 0)"/>
            <g class="cls-41">
              <g class="cls-45">
                <path class="cls-43" d="M75.94,78.54s.17.16.52.34a3.1,3.1,0,0,0,1.08.27,10.69,10.69,0,0,0,1.24.07c.32,0,.74,0,1.24,0l.72-.09c.39-.09.73-.15,1-.2s.76-.11,1.46-.14c.34,0,.63,0,.85,0s.75,0,1.16,0,.81.08,1.17.14l1.26.28a7.65,7.65,0,0,0,1.5.09,8.33,8.33,0,0,0,2.28-.37,4.36,4.36,0,0,1-2.24,2.34,4.86,4.86,0,0,1-3,.27l-.05,0A4.75,4.75,0,0,0,85,81.16a4.21,4.21,0,0,0-1.12-.1,6.54,6.54,0,0,0-2.24.37h0a4.65,4.65,0,0,1-2.88-.09,5.47,5.47,0,0,1-1.32-.71,3.86,3.86,0,0,1-1.5-2.1" transform="translate(0 0)"/>
              </g>
            </g>
            <path class="cls-44" d="M93.9,76.92a.55.55,0,0,1,.22.2,1,1,0,0,1,.18.63.88.88,0,0,1-.35.58.84.84,0,0,1-.29.1,2.08,2.08,0,0,1,.08-.27c0-.06,0-.16,0-.22a.66.66,0,0,0,0-.24c0-.17,0-.35,0-.5s0-.28,0-.28" transform="translate(0 0)"/>
            <path class="cls-44" d="M73.62,77.28a.67.67,0,0,0-.22.2,1,1,0,0,0-.18.63.8.8,0,0,0,.36.58.84.84,0,0,0,.29.1,2.08,2.08,0,0,0-.08-.27c0-.06,0-.16,0-.22s0-.16,0-.24,0-.35,0-.5a2,2,0,0,0,0-.28" transform="translate(0 0)"/>
          </g>
        </g>
      </g>
    </g>
  </g>
</svg>
