<svg xmlns="http://www.w3.org/2000/svg" viewBox="0 0 143.65 146.63">
  <defs>
    <style>
      .cls-1 {
        fill: none;
      }

      .cls-2 {
        fill: #fff;
      }
    </style>
  </defs>
  <title>logo</title>
  <g id="Laag_2" data-name="Laag 2">
    <g id="Laag_6" data-name="Laag 6">
      <g>
        <path class="cls-1" d="M72.5,57.63A17,17,0,1,0,84.83,86.31L73.15,74.63,84.83,63A16.94,16.94,0,0,0,72.5,57.63Z"/>
        <path class="cls-1" d="M73,20.63a54,54,0,1,0,38.26,92.11l-13-13a36,36,0,1,1,0-50.24l13-13A53.86,53.86,0,0,0,73,20.63Z"/>
      </g>
      <g>
        <path class="cls-1" d="M122,47.49a55,55,0,1,0-1,53.33L94.55,75Z"/>
        <path class="cls-1" d="M128.12,67.7,120.88,75l6.88,6.68a55.49,55.49,0,0,0,.64-8.41C128.4,71.36,128.3,69.52,128.12,67.7Z"/>
        <g>
          <path class="cls-2" d="M72.81,56a17.21,17.21,0,0,1,12.55,5.41L99.05,47.73a36.66,36.66,0,1,0,0,51.17L85.36,85.21A17.3,17.3,0,1,1,72.81,56Z"/>
          <path class="cls-2" d="M73.32,128.3a55,55,0,1,1,39-93.79l13-13a73.32,73.32,0,1,0,0,103.53l-13-13A54.81,54.81,0,0,1,73.32,128.3Z"/>
          <path class="cls-2" d="M120.88,75l7.24-7.25,15.53-15.52A72.83,72.83,0,0,0,135.4,34.1L122,47.49,94.55,75,121,100.82,134.38,114A73,73,0,0,0,143,96.41l-15.2-14.78Z"/>
        </g>
      </g>
    </g>
  </g>
</svg>
