<svg xmlns="http://www.w3.org/2000/svg" viewBox="0 0 688.92 146.63">
  <defs>
    <style>
      .cls-1, .cls-3 {
        fill: none;
      }

      .cls-2 {
        fill: #fff;
      }

      .cls-3 {
        stroke: #fff;
        stroke-linecap: round;
        stroke-linejoin: round;
        stroke-width: 0;
      }
    </style>
  </defs>
  <title>Middel 5</title>
  <g id="Laag_2" data-name="Laag 2">
    <g id="Laag_6" data-name="Laag 6">
      <g>
        <path class="cls-1" d="M349.93,74.78a11.14,11.14,0,0,0-3.43-2.33,10.41,10.41,0,0,0-4.22-.86H336V93.23h6.25a10.41,10.41,0,0,0,4.22-.86A11.14,11.14,0,0,0,349.93,90a11,11,0,0,0,2.34-3.42,10.73,10.73,0,0,0,0-8.42A11,11,0,0,0,349.93,74.78Z"/>
        <path class="cls-1" d="M564.36,70.43H557.7v8.65h6.66a4.28,4.28,0,0,0,3.09-1.28,4.15,4.15,0,0,0,1.3-3.08,4.05,4.05,0,0,0-1.3-3A4.32,4.32,0,0,0,564.36,70.43Z"/>
        <path class="cls-1" d="M519.29,74.4a11.13,11.13,0,0,0-3.5-2.5,10.72,10.72,0,0,0-8.69,0,11,11,0,0,0-3.49,2.5,12,12,0,0,0-2.33,3.66,11.92,11.92,0,0,0,0,8.84,12.36,12.36,0,0,0,2.33,3.69,10.64,10.64,0,0,0,3.49,2.54,10.72,10.72,0,0,0,8.69,0,10.79,10.79,0,0,0,3.5-2.54,12.19,12.19,0,0,0,2.29-12.53A11.5,11.5,0,0,0,519.29,74.4Z"/>
        <path class="cls-1" d="M672.68,74.78a11,11,0,0,0-3.43-2.33,10.41,10.41,0,0,0-4.22-.86h-6.25V93.23H665a10.41,10.41,0,0,0,4.22-.86A11.15,11.15,0,0,0,675,86.62a10.73,10.73,0,0,0,0-8.42A11,11,0,0,0,672.68,74.78Z"/>
        <path class="cls-1" d="M293.77,74.4a11,11,0,0,0-3.49-2.5,10.72,10.72,0,0,0-8.69,0,11.13,11.13,0,0,0-3.5,2.5,12,12,0,0,0-2.32,3.66,11.79,11.79,0,0,0,0,8.84,12.34,12.34,0,0,0,2.32,3.69,10.79,10.79,0,0,0,3.5,2.54,10.72,10.72,0,0,0,8.69,0,10.64,10.64,0,0,0,3.49-2.54,11.69,11.69,0,0,0,2.29-3.69,12.18,12.18,0,0,0,0-8.84A11.33,11.33,0,0,0,293.77,74.4Z"/>
        <path class="cls-2" d="M72.81,56a17.21,17.21,0,0,1,12.55,5.41L97.77,49l1.28-1.29a36.66,36.66,0,1,0,0,51.17L85.36,85.21c-.26.28-.55.54-.83.8a17.26,17.26,0,0,1-29-12c0-.23,0-.46,0-.69A17.31,17.31,0,0,1,72.81,56Z"/>
        <path class="cls-2" d="M111.57,112.79l-.63.61a55.73,55.73,0,0,1-11.44,8.28,55,55,0,1,1,12.77-87.17l.09-.08,12.87-12.88a73.32,73.32,0,1,0,0,103.53l-13-13Z"/>
        <path class="cls-3" d="M111.57,112.79l-.63.61"/>
        <path class="cls-2" d="M143.65,52.18A72.83,72.83,0,0,0,135.4,34.1L122,47.49,94.55,75,121,100.82,134.38,114A73,73,0,0,0,143,96.41l-15.2-14.78L120.88,75l7.24-7.25Z"/>
        <path class="cls-2" d="M239,93.57a9.9,9.9,0,0,1-4.19-.89,10.58,10.58,0,0,1-3.33-2.41,10.92,10.92,0,0,1-2.2-3.53,11.47,11.47,0,0,1-.79-4.23,10.87,10.87,0,0,1,.82-4.19,11.71,11.71,0,0,1,2.24-3.5,10.44,10.44,0,0,1,3.33-2.4,9.72,9.72,0,0,1,4.19-.89,11.89,11.89,0,0,1,6.86,2.54l9.82-8.66a26.84,26.84,0,0,0-8-5.18A23.24,23.24,0,0,0,239,58.55a22.56,22.56,0,0,0-9.27,1.92,24.1,24.1,0,0,0,0,44.09,22.56,22.56,0,0,0,9.27,1.92A23,23,0,0,0,249.43,104a26.55,26.55,0,0,0,8.73-7.18l-10.1-8.37Q244.22,93.57,239,93.57Z"/>
        <path class="cls-2" d="M302.9,65.55a24.48,24.48,0,0,0-7.66-5.11,24,24,0,0,0-18.68,0,24.08,24.08,0,0,0-7.66,5.15,24.35,24.35,0,0,0-5.15,7.62,23.92,23.92,0,0,0,0,18.64,23.9,23.9,0,0,0,5.15,7.62,24.5,24.5,0,0,0,7.66,5.12,24,24,0,0,0,18.68,0,24.5,24.5,0,0,0,7.66-5.12,23.9,23.9,0,0,0,5.15-7.62,24.14,24.14,0,0,0,0-18.68A23.9,23.9,0,0,0,302.9,65.55ZM296.06,86.9a11.69,11.69,0,0,1-2.29,3.69,10.64,10.64,0,0,1-3.49,2.54,10.72,10.72,0,0,1-8.69,0,10.79,10.79,0,0,1-3.5-2.54,12.34,12.34,0,0,1-2.32-3.69,11.79,11.79,0,0,1,0-8.84,12,12,0,0,1,2.32-3.66,11.13,11.13,0,0,1,3.5-2.5,10.72,10.72,0,0,1,8.69,0,11,11,0,0,1,3.49,2.5,11.33,11.33,0,0,1,2.29,3.66,12.18,12.18,0,0,1,0,8.84Z"/>
        <path class="cls-2" d="M359.52,66.48a23.1,23.1,0,0,0-7.2-4.84,21.77,21.77,0,0,0-8.77-1.79H323.19v45.26h20.36a21.77,21.77,0,0,0,8.77-1.79,23,23,0,0,0,12.07-12.09,22.59,22.59,0,0,0,0-17.58A22.71,22.71,0,0,0,359.52,66.48Zm-7.25,20.14A11,11,0,0,1,349.93,90a11.14,11.14,0,0,1-3.43,2.33,10.41,10.41,0,0,1-4.22.86H336V71.59h6.25a10.41,10.41,0,0,1,4.22.86,11.14,11.14,0,0,1,3.43,2.33,11,11,0,0,1,2.34,3.42,10.73,10.73,0,0,1,0,8.42Z"/>
        <polygon class="cls-2" points="375.38 105.11 411.29 105.11 411.29 93.71 387.33 93.71 387.33 88.14 409.99 88.14 409.99 76.75 387.33 76.75 387.33 71.18 411.29 71.18 411.29 59.85 375.38 59.85 375.38 105.11"/>
        <polygon class="cls-2" points="463.76 81.55 455.79 59.85 448.1 59.85 440.06 81.55 432.03 59.85 418.23 59.85 434.98 105.11 445.15 105.11 451.94 86.7 458.67 105.11 468.84 105.11 485.59 59.85 471.79 59.85 463.76 81.55"/>
        <path class="cls-2" d="M528.41,65.55a24.36,24.36,0,0,0-7.66-5.11,24,24,0,0,0-18.67,0,23.86,23.86,0,0,0-7.66,5.15,24.18,24.18,0,0,0-5.15,7.62,23.92,23.92,0,0,0,0,18.64,23.74,23.74,0,0,0,5.15,7.62,24.28,24.28,0,0,0,7.66,5.12,24,24,0,0,0,18.67,0,24.39,24.39,0,0,0,7.66-5.12,23.9,23.9,0,0,0,5.15-7.62,24,24,0,0,0,0-18.68A23.9,23.9,0,0,0,528.41,65.55ZM521.58,86.9a11.87,11.87,0,0,1-2.29,3.69,10.79,10.79,0,0,1-3.5,2.54,10.72,10.72,0,0,1-8.69,0,10.64,10.64,0,0,1-3.49-2.54,12.36,12.36,0,0,1-2.33-3.69,11.92,11.92,0,0,1,0-8.84,12,12,0,0,1,2.33-3.66,11,11,0,0,1,3.49-2.5,10.72,10.72,0,0,1,8.69,0,11.13,11.13,0,0,1,3.5,2.5,11.5,11.5,0,0,1,2.29,3.66,12.32,12.32,0,0,1,0,8.84Z"/>
        <path class="cls-2" d="M580.7,79.87a13.55,13.55,0,0,0,.89-10.27,13.94,13.94,0,0,0-1.78-3.71,12.76,12.76,0,0,0-2.3-2.47,15.87,15.87,0,0,0-2.92-1.89,17.6,17.6,0,0,0-3.26-1.23,12.6,12.6,0,0,0-3.26-.45H544.44v45.26H557.7V91.3h8l7.14,13.81h14.29L576.58,84.78A14.48,14.48,0,0,0,580.7,79.87ZM567.45,77.8a4.28,4.28,0,0,1-3.09,1.28H557.7V70.43h6.66a4.32,4.32,0,0,1,3.09,1.24,4.05,4.05,0,0,1,1.3,3A4.15,4.15,0,0,1,567.45,77.8Z"/>
        <polygon class="cls-2" points="610.78 59.85 598.07 59.85 598.07 105.11 634.26 105.11 634.26 93.64 610.78 93.64 610.78 59.85"/>
        <path class="cls-2" d="M687.14,73.65a22.71,22.71,0,0,0-4.87-7.17,23.1,23.1,0,0,0-7.2-4.84,21.77,21.77,0,0,0-8.77-1.79H645.94v45.26H666.3a21.77,21.77,0,0,0,8.77-1.79,23,23,0,0,0,12.07-12.09,22.59,22.59,0,0,0,0-17.58ZM675,86.62a11.15,11.15,0,0,1-5.77,5.75,10.41,10.41,0,0,1-4.22.86h-6.25V71.59H665a10.41,10.41,0,0,1,4.22.86A11.15,11.15,0,0,1,675,78.2a10.73,10.73,0,0,1,0,8.42Z"/>
      </g>
    </g>
  </g>
</svg>
