<svg xmlns="http://www.w3.org/2000/svg" xmlns:xlink="http://www.w3.org/1999/xlink" viewBox="0 0 162.06 168.14">
  <defs>
    <style>
      .cls-1, .cls-18 {
        fill: none;
      }

      .cls-2 {
        isolation: isolate;
      }

      .cls-3 {
        opacity: 0.5;
      }

      .cls-4 {
        clip-path: url(#clip-path);
      }

      .cls-5 {
        fill: #f9cbcc;
      }

      .cls-6 {
        fill: #d9ad96;
      }

      .cls-7 {
        opacity: 0.71;
        mix-blend-mode: multiply;
      }

      .cls-8 {
        clip-path: url(#clip-path-2);
      }

      .cls-9 {
        fill: #6f91cb;
      }

      .cls-10 {
        fill: #210;
      }

      .cls-11 {
        fill: #d3a57d;
      }

      .cls-12 {
        fill: #fff;
      }

      .cls-13 {
        fill: #1e0e00;
      }

      .cls-14 {
        fill: #432918;
      }

      .cls-15 {
        fill: #64350d;
      }

      .cls-16 {
        fill: #1d1d1b;
      }

      .cls-17 {
        fill: #8f7156;
      }

      .cls-18 {
        stroke: #1d1d1b;
        stroke-linecap: round;
        stroke-linejoin: round;
        stroke-width: 0.38px;
      }

      .cls-19 {
        fill: #805250;
      }

      .cls-20 {
        clip-path: url(#clip-path-3);
      }

      .cls-21 {
        clip-path: url(#clip-path-4);
      }
    </style>
    <clipPath id="clip-path" transform="translate(0 0)">
      <rect class="cls-1" width="162.06" height="168.14"/>
    </clipPath>
    <clipPath id="clip-path-2" transform="translate(0 0)">
      <rect class="cls-1" x="70.13" y="91.43" width="22.63" height="11.03"/>
    </clipPath>
    <clipPath id="clip-path-3" transform="translate(0 0)">
      <rect class="cls-1" x="73.55" y="78.49" width="15.38" height="2.91"/>
    </clipPath>
    <clipPath id="clip-path-4" transform="translate(0 0)">
      <rect class="cls-1" x="77.22" y="53.18" width="8.75" height="21.14"/>
    </clipPath>
  </defs>
  <title>stan</title>
  <g class="cls-2">
    <g id="Laag_2" data-name="Laag 2">
      <g id="Laag_1-2" data-name="Laag 1">
        <g>
          <g class="cls-3">
            <g class="cls-4">
              <path class="cls-5" d="M162.06,84.07c0,46.43-36.28,84.07-81,84.07S0,130.5,0,84.07,36.28,0,81,0s81,37.64,81,84.07" transform="translate(0 0)"/>
            </g>
          </g>
          <rect class="cls-6" x="70.13" y="91.43" width="22.63" height="14.36"/>
          <g>
            <g class="cls-7">
              <g class="cls-8">
                <path class="cls-6" d="M76.46,102.43a18.93,18.93,0,0,0,10-3.37,19.54,19.54,0,0,0,5.47-5.68c.27-.43.57-.92.85-1.44v-.51H70.13v10.74a41.9,41.9,0,0,0,6.33.26" transform="translate(0 0)"/>
              </g>
            </g>
            <path class="cls-6" d="M109.46,51.15c0-22.27-12.55-35.06-28.08-35.17h-.33C65.52,16.09,53,28.88,53,51.15,53,80,72.53,96.87,81.18,96.94h.06c8.65-.07,28.22-16.91,28.22-45.79" transform="translate(0 0)"/>
            <path class="cls-6" d="M56.06,74.78a4.82,4.82,0,0,0,2-.35L56.46,60.86c-1.86-2.06-4.27-2.94-5.83-2.23-2.23,1-1.83,4.94-1.68,6.43.45,4.36,3.38,9.5,7.11,9.72" transform="translate(0 0)"/>
            <path class="cls-6" d="M70,104.69,42.83,118.75s-9.53,2.82-12,19.38l3.48,12.4L81,168.14h.47a81,81,0,0,0,36.14-9,78.34,78.34,0,0,0,14.07-9.4c0-3.86-.07-7.73-.11-11.59-2.43-16.56-12-19.38-12-19.38L92.39,104.69Z" transform="translate(0 0)"/>
            <path class="cls-9" d="M96,105.93l23.56,12.3s9.52,2.85,12,19.58q.06,6,.11,11.91a78.72,78.72,0,0,1-50.21,18.42H81a77.73,77.73,0,0,1-50.57-18.59q.22-5.87.46-11.74c2.43-16.73,12-19.58,12-19.58L66.21,106c.27.66,5.3,12.52,14.91,12.52s14.66-12,14.92-12.61" transform="translate(0 0)"/>
            <path class="cls-6" d="M106.86,74.78a4.76,4.76,0,0,1-2-.35l1.61-13.57c1.87-2.06,4.28-2.94,5.84-2.23,2.23,1,1.83,4.94,1.67,6.43-.45,4.36-3.37,9.5-7.1,9.72" transform="translate(0 0)"/>
            <path class="cls-10" d="M105.84,54l.49,12.54h1.06s-.76-6.66,1.07-7.66c0,0,.19-.43.63.41,0,0,3.83-21.6,2.24-32.37a30,30,0,0,0-5.66-10.46A22.59,22.59,0,0,0,90.23,9.4S87,.34,74.38,2.16c0,0-17.84,3-24,24.69,0,0-.16,18,2.61,31.95,0,0,2.92-.09,1.36,7.78h1l1.51-20s-.62-11.2,3.83-15.21a30.67,30.67,0,0,1,15.74-7S101.24,23,104.1,37.52c0,0,1.89,9.84,1.74,16.52" transform="translate(0 0)"/>
            <path class="cls-11" d="M99.59,54.63s-7.68-6.51-12.87.36a1.18,1.18,0,0,0-.11.84s-.64-1.18-.06-1.75c0,0,2.48-6.29,8.42-5.15a6.57,6.57,0,0,1,4.62,4.8v.9" transform="translate(0 0)"/>
            <path class="cls-12" d="M87,54.44a8.85,8.85,0,0,1,1.39-1.75A6.69,6.69,0,0,1,94,50.78s2.51.07,4.65,4.31c0,0-2.7,3-10.44.61,0,0-1-.1-1.39.3-.06.06-.2-.12-.22-.17a1,1,0,0,1,.11-.84,4.14,4.14,0,0,1,.31-.55" transform="translate(0 0)"/>
            <path class="cls-13" d="M95.21,53.69c0,1.67-1,3-2.34,3s-2.34-1.36-2.34-3,1-3,2.34-3,2.34,1.35,2.34,3" transform="translate(0 0)"/>
            <path class="cls-14" d="M95,53.69c0,1.49-.93,2.7-2.08,2.7s-2.08-1.21-2.08-2.7S91.72,51,92.87,51,95,52.21,95,53.69" transform="translate(0 0)"/>
            <path class="cls-15" d="M94.55,53.69a1.74,1.74,0,1,1-1.68-2.17,2,2,0,0,1,1.68,2.17" transform="translate(0 0)"/>
            <path class="cls-15" d="M92.79,55.85l-.17,0,.25-2.13h0l-.42,2.09-.16-.07.58-2-.73,1.94s-.11-.07-.15-.11l.87-1.83h0l-1,1.72-.13-.14,1.14-1.58h0L91.6,55.11s-.07-.11-.11-.17l1.37-1.24-1.46,1c0-.06-.05-.13-.07-.2l1.52-.85-1.58.65a1.55,1.55,0,0,1,0-.21l1.63-.45-1.66.23a1.7,1.7,0,0,1,0-.22h1.67l-1.66-.21a1.64,1.64,0,0,1,0-.22l1.63.43-1.58-.64a.83.83,0,0,1,.06-.21l1.52.85-1.45-1,.09-.19,1.37,1.23h0l-1.26-1.4a.91.91,0,0,1,.11-.16l1.15,1.56h0l-1-1.7.14-.13.88,1.83h0l-.74-1.94a.8.8,0,0,1,.16-.08l.58,2h0l-.42-2.09.16,0,.26,2.13h0Zm.17,0-.09-2.16-.09-2.15H93l-.08,2.15h0l.26,2.13-.17,0m.33-.07-.42-2.08h0l.88,1.83-.15.11-.73-1.94h0l.57,2a.44.44,0,0,1-.16.06m.61-.37-1-1.71L94,55.27l-.13.14m.24-.31-1.26-1.4h0l1.37,1.23a1.26,1.26,0,0,1-.11.17m.2-.35-1.45-1h0l.25-2.13.16,0-.41,2.09h0l.57-2,.15.08-.72,1.94.87-1.83a.53.53,0,0,1,.14.12l-1,1.71h0L94,52.12l.12.16-1.26,1.41h0l1.36-1.24.1.18-1.45,1.06,1.52-.86.06.2-1.58.66,1.63-.44a1.5,1.5,0,0,1,0,.22l-1.66.22h0l1.63.43a1.6,1.6,0,0,1,0,.21l-1.58-.64,1.52.85c0,.07,0,.13-.07.2m.2-.84L92.9,53.7l1.65,0h0a1.55,1.55,0,0,1,0,.22" transform="translate(0 0)"/>
            <path class="cls-16" d="M93.78,53.69a.94.94,0,1,1-.91-1.17,1.07,1.07,0,0,1,.91,1.17" transform="translate(0 0)"/>
            <path class="cls-12" d="M94,52.52a.47.47,0,1,1-.45-.59.54.54,0,0,1,.45.59" transform="translate(0 0)"/>
            <path class="cls-12" d="M93.36,53.43c0,.17-.1.3-.23.3s-.22-.13-.22-.3a.23.23,0,1,1,.45,0" transform="translate(0 0)"/>
            <path class="cls-17" d="M98.66,55.09s-2.43-4-5.29-3.7c0,0-2.61-.57-6.34,3a7.69,7.69,0,0,1,5.19-4s4.19-1.14,7.37,4.2Z" transform="translate(0 0)"/>
            <path class="cls-11" d="M62.88,54.63s7.68-6.51,12.87.36a1.18,1.18,0,0,1,.11.84s.64-1.18.06-1.75c0,0-2.48-6.29-8.43-5.15a7.16,7.16,0,0,0-4.61,5.7h0" transform="translate(0 0)"/>
            <path class="cls-12" d="M75.44,54.44a9.15,9.15,0,0,0-1.39-1.75,6.74,6.74,0,0,0-5.59-1.91s-2.51.07-4.65,4.31c0,0,2.69,3,10.43.61,0,0,1-.1,1.39.3.07.06.21-.12.23-.17a1,1,0,0,0-.11-.84,4.14,4.14,0,0,0-.31-.55" transform="translate(0 0)"/>
            <path class="cls-13" d="M67.26,53.69c0,1.67,1,3,2.34,3s2.34-1.36,2.34-3-1-3-2.34-3-2.34,1.35-2.34,3" transform="translate(0 0)"/>
            <path class="cls-14" d="M67.52,53.69c0,1.49.93,2.7,2.08,2.7s2.08-1.21,2.08-2.7S70.74,51,69.6,51s-2.08,1.21-2.08,2.69" transform="translate(0 0)"/>
            <path class="cls-15" d="M67.92,53.69a1.74,1.74,0,1,0,1.68-2.17,2,2,0,0,0-1.68,2.17" transform="translate(0 0)"/>
            <path class="cls-15" d="M69.6,53.7h0l.25-2.13.17,0-.42,2.09h0l.58-2,.16.08-.74,1.94.89-1.83.14.13-1,1.7h0l1.16-1.56.11.16-1.27,1.4h0L71,52.46a1.72,1.72,0,0,1,.09.19l-1.46,1,1.53-.85.06.21-1.58.64,1.62-.43a.89.89,0,0,1,0,.22l-1.66.21h1.67c0,.07,0,.14,0,.22l-1.66-.22,1.63.44a1.55,1.55,0,0,1,0,.21l-1.58-.65,1.52.85c0,.07,0,.14-.08.2l-1.45-1L71,54.94l-.1.17L69.61,53.7h0l1.15,1.57-.13.14-1-1.71h0l.88,1.83-.15.11L69.6,53.7l.58,2-.17.07L69.6,53.7h0l.25,2.13-.17,0Zm-.26,2.13.26-2.13h0l-.08-2.15h.17l-.09,2.15-.09,2.16-.17,0M69,55.72l.58-2h0l-.73,1.94-.15-.11.88-1.83h0l-.41,2.09L69,55.72m-.57-.45,1.15-1.57h0l-1,1.71-.13-.14m-.22-.33,1.36-1.24h0l-1.27,1.41-.1-.17m-.17-.39,1.52-.85L68,54.34a1.29,1.29,0,0,1,0-.21l1.62-.43h0l-1.65-.22a1.5,1.5,0,0,1,0-.22l1.62.44L68,53a.83.83,0,0,1,.06-.21l1.51.85-1.44-1,.09-.18,1.36,1.24h0l-1.26-1.41.12-.16,1.14,1.57h0l-1-1.71a.53.53,0,0,1,.14-.12l.87,1.83h0l-.73-1.94.16-.08.57,2-.41-2.09.17,0,.24,2.13h0l-1.45,1c0-.06,0-.13-.08-.2m-.13-.86h0l1.65,0-1.64.22a1.77,1.77,0,0,1,0-.23" transform="translate(0 0)"/>
            <path class="cls-16" d="M68.69,53.69a.94.94,0,1,0,.91-1.17,1.07,1.07,0,0,0-.91,1.17" transform="translate(0 0)"/>
            <path class="cls-12" d="M68.42,52.52a.54.54,0,0,0,.46.59.61.61,0,0,0,0-1.18.54.54,0,0,0-.46.59" transform="translate(0 0)"/>
            <path class="cls-12" d="M69.11,53.43c0,.17.1.3.23.3s.22-.13.22-.3a.23.23,0,1,0-.45,0" transform="translate(0 0)"/>
            <path class="cls-17" d="M63.81,55.09s2.43-4,5.29-3.69c0,0,2.61-.58,6.34,3a7.72,7.72,0,0,0-5.19-4s-4.19-1.14-7.37,4.2Z" transform="translate(0 0)"/>
            <polyline class="cls-18" points="85.45 46.35 86.09 45.99 85.23 46.64 86.61 45.86 85.11 47.13 87.92 45.55 85.15 47.48 89.06 45.26 85.25 47.86 90.41 44.94 85.39 48.16 91.6 44.65 85.47 48.29 92.06 44.56 85.75 48.47 92.92 44.4 86.33 48.4 93.55 44.31 87.23 48.22 94.29 44.22 88.06 48.06 94.92 44.17 88.64 47.95 95.35 44.14 89.07 47.86 95.64 44.14 90.11 47.66 96.31 44.14 91.38 47.41 97.05 44.19 92.15 47.26 97.46 44.25 92.58 47.18 97.68 44.28 93.31 47.03 98.02 44.37 94.17 46.86 98.38 44.48 94.85 46.73 98.67 44.57 95.55 46.67 99 44.71 96.08 46.66 99.27 44.86 96.75 46.7 99.6 45.09 97.15 46.76 99.79 45.26 97.46 46.81 99.94 45.4 98 46.92 100.19 45.69 98.25 47 100.3 45.84 98.54 47.09 100.41 46.03 98.76 47.18 100.5 46.2 98.92 47.25 100.56 46.32 99.34 47.45 100.72 46.66 99.59 47.6 100.83 46.9 99.75 47.7 100.89 47.06 99.9 47.8 100.95 47.21 100.15 48 101.05 47.48 100.39 48.22 101.14 47.8 100.57 48.38 101.19 48.02 100.74 48.57 101.23 48.29 100.98 48.89 101.27 48.73 101.17 49.15 101.23 49.12"/>
            <polyline class="cls-18" points="76.97 46.35 76.33 45.99 77.2 46.65 75.82 45.86 77.31 47.13 74.51 45.55 77.28 47.48 73.36 45.26 77.17 47.86 72.02 44.94 77.03 48.16 70.83 44.65 76.95 48.29 70.36 44.56 76.68 48.47 69.51 44.4 76.1 48.4 68.88 44.31 75.19 48.22 68.14 44.22 74.37 48.06 67.51 44.17 73.78 47.95 67.08 44.14 73.36 47.86 66.79 44.14 72.31 47.66 66.11 44.14 71.05 47.41 65.37 44.19 70.28 47.26 64.97 44.25 69.85 47.18 64.75 44.28 69.12 47.03 64.41 44.37 68.25 46.86 64.05 44.48 67.58 46.73 63.76 44.57 66.88 46.67 63.43 44.71 66.34 46.66 63.16 44.86 65.68 46.7 62.83 45.09 65.28 46.76 62.64 45.26 64.97 46.81 62.48 45.4 64.42 46.92 62.24 45.69 64.18 47 62.13 45.84 63.89 47.09 62.01 46.03 63.66 47.18 61.93 46.2 63.5 47.25 61.87 46.32 63.09 47.45 61.7 46.67 62.84 47.6 61.6 46.9 62.67 47.7 61.53 47.06 62.53 47.8 61.48 47.21 62.27 48 61.37 47.48 62.03 48.22 61.29 47.8 61.86 48.38 61.23 48.03 61.69 48.57 61.19 48.29 61.45 48.89 61.16 48.73 61.26 49.15 61.2 49.11"/>
            <path class="cls-19" d="M77,83.78c.28.08.51.23.77.31a4.58,4.58,0,0,0,.79.2,4.2,4.2,0,0,0,1.58-.08h0A4.74,4.74,0,0,1,81.63,84a3.19,3.19,0,0,1,.75.08,3.89,3.89,0,0,1,.74.21h0a4.31,4.31,0,0,0,1.64,0,2.72,2.72,0,0,0,1.43-.83,2.4,2.4,0,0,1-1.35,1.08,3.86,3.86,0,0,1-1.82.13h0a3.53,3.53,0,0,0-.66-.16,3.71,3.71,0,0,0-.67,0,4.68,4.68,0,0,0-1.35.18h0a3.57,3.57,0,0,1-1.75,0,3.66,3.66,0,0,1-.79-.33c-.25-.13-.46-.32-.7-.46" transform="translate(0 0)"/>
            <g class="cls-7">
              <g class="cls-20">
                <path class="cls-6" d="M80,78.71a2.15,2.15,0,0,0,3.18.05s1.32-1,3.35.93a4.17,4.17,0,0,0,2.42,1.53s-1.36.61-5.8-.39a13.13,13.13,0,0,0-4.77.48,32.72,32.72,0,0,1-4.81,0,7.63,7.63,0,0,0,3-1.42s1.64-1.65,3.44-1.17" transform="translate(0 0)"/>
              </g>
            </g>
            <path class="cls-19" d="M91.8,80.23A9.93,9.93,0,0,1,86,81.8a7.34,7.34,0,0,1-1-.11,7.16,7.16,0,0,1-1-.24l.08,0a13.15,13.15,0,0,0-2.26-.16,12.89,12.89,0,0,0-2.25.17h0a16.52,16.52,0,0,1-8.1-.44c.67,0,1.34,0,2,.06s1.32,0,2,0a14.11,14.11,0,0,0,3.83-.52h0a13.63,13.63,0,0,1,2.45-.23,13.24,13.24,0,0,1,2.43.23h0l0,0a6.75,6.75,0,0,0,.89.24A7.36,7.36,0,0,0,86,81a10.33,10.33,0,0,0,1.93.06,12.77,12.77,0,0,0,1.93-.26,16.61,16.61,0,0,0,1.91-.56" transform="translate(0 0)"/>
            <path class="cls-19" d="M71.38,80.23s0,.12,0,.27,0,.32,0,.48,0,.15,0,.22,0,.16.05.21a1.42,1.42,0,0,1,.07.26A.72.72,0,0,1,71,81a1,1,0,0,1,.17-.6.58.58,0,0,1,.22-.19" transform="translate(0 0)"/>
            <path class="cls-19" d="M91.85,79.51a.71.71,0,0,1,.21.2.94.94,0,0,1,.17.59.84.84,0,0,1-.34.55.63.63,0,0,1-.28.09s0-.13.07-.25,0-.15,0-.21,0-.15,0-.22,0-.33,0-.48a1.71,1.71,0,0,1,0-.27" transform="translate(0 0)"/>
            <g class="cls-7">
              <g class="cls-21">
                <path class="cls-6" d="M78,53.18a57.33,57.33,0,0,1-.24,16.05s-2.08,4.1,1.7,4.1c0,0-1.61-.34-.85-3A32.55,32.55,0,0,0,78,53.18" transform="translate(0 0)"/>
                <path class="cls-6" d="M84,69.32s2.31,2.42,0,3.67a1.93,1.93,0,0,0,2-1.83s-.17-2-2-1.84" transform="translate(0 0)"/>
                <path class="cls-6" d="M79.92,73a1.28,1.28,0,0,1,.71,0,1.09,1.09,0,0,1,.35.16,1,1,0,0,1,.32.32.55.55,0,0,0,.17.17.22.22,0,0,0,.14,0s.11,0,.19-.08A1,1,0,0,0,82,73.4a1.5,1.5,0,0,1,.24-.2,1.29,1.29,0,0,1,.35-.22.94.94,0,0,1,.54,0l.18,0-.17.09a1,1,0,0,0-.36.23.63.63,0,0,0-.13.17,2.2,2.2,0,0,1-.21.32,1.22,1.22,0,0,1-.85.51,1,1,0,0,1-.58-.21,1,1,0,0,1-.29-.41c-.06-.1,0-.15-.11-.22s-.11-.12-.17-.18a3.22,3.22,0,0,0-.56-.3" transform="translate(0 0)"/>
              </g>
            </g>
          </g>
        </g>
      </g>
    </g>
  </g>
</svg>
