<svg xmlns="http://www.w3.org/2000/svg" viewBox="0 0 1274.47 154.02"><defs><style>.cls-1{fill:#a1bf4c;}.cls-2{fill:#5a3b38;}</style></defs><title>turtle_logo</title><g id="Laag_2" data-name="Laag 2"><g id="Laag_3" data-name="Laag 3"><g id="Laag_1-2" data-name="Laag 1-2"><path class="cls-1" d="M69.63,35.77V150.71H31.39V35.77H0V3.27H101v32.5Z"/><path class="cls-1" d="M156.27,3.27V90.59c0,6.18.22,15.69,7.52,22.76a27.14,27.14,0,0,0,35.8.67c8.85-7.74,8.62-18.57,8.62-26.75v-84h38.24V87.93c0,15.48-.66,31.61-16.57,47.75C217.5,148.28,202,154,181.25,154c-23.21,0-39.79-8-48.85-17.68C119.58,122.42,118,103.63,118,87.93V3.27Z"/><path class="cls-1" d="M337.07,3.27c11.06,0,25.2,1.77,36,13,8.4,8.62,12.6,21.44,12.6,33.15,0,12.6-4.42,23.65-11.71,30.73a41.36,41.36,0,0,1-20.34,10.16l46.2,60.35H352.33l-36.7-56.52v56.59H277.39V3.27Zm-21.44,66.1h7.3c5.74,0,13.92-1.55,18.57-6A18.39,18.39,0,0,0,346.36,51a17.4,17.4,0,0,0-5.09-12.38c-3.53-3.54-9.94-5.75-18.34-5.75h-7.3Z"/><path class="cls-1" d="M466.16,35.77V150.71H427.92V35.77H396.53V3.27h101v32.5Z"/><path class="cls-1" d="M552.8,3.27V118.21h46v32.5H514.56V3.27Z"/><path class="cls-1" d="M702.22,35.77H656.68V60.3h43.11V92.8H656.68v25.41h45.54v32.5H618.44V3.27h83.78Z"/><path class="cls-2" d="M832.41,146.73c-15.25,5.52-23.65,7.29-33.16,7.29-25.64,0-44.87-10.16-57-22.1A76.91,76.91,0,0,1,797.26.84h.67C805,.84,816.49,2,832.41,8.36V54.14C820,38.89,805.41,38,799,38c-11,0-19.45,3.31-26.52,9.72A41.16,41.16,0,0,0,759.69,78c0,10.16,4.2,21.44,11.93,28.73,6.41,6,16.58,10.17,27.41,10.17,5.75,0,19.89-.66,33.38-15.47Z"/><path class="cls-2" d="M989.56,132.14c-15,14.37-36.25,21.88-58.13,21.88s-43.11-7.51-58.14-21.88a76.52,76.52,0,0,1-23.21-55c0-19.67,7.52-40.45,23.21-55.26C888.29,7.51,909.54,0,931.43,0s43.1,7.51,58.13,21.88c15.69,14.81,23.21,35.59,23.21,55.26A76.52,76.52,0,0,1,989.56,132.14Zm-88-83.33c-8,7.73-11.72,18.57-11.72,29a37.45,37.45,0,0,0,11.75,27.33c7.07,6.86,17,11.72,29.84,11.72,13,0,22.76-4.64,29.62-11.49a40.6,40.6,0,0,0,12-28.23,39.77,39.77,0,0,0-11.93-28.29,44.16,44.16,0,0,0-29.64-11.71c-10.61,0-21.89,3.71-29.84,11.67Z"/><path class="cls-2" d="M1037.08,150.71V3.27h50.17c14.81,0,39.57,2,58.58,20.34,17.24,16.58,20.56,37.8,20.56,53.71,0,19.45-4.87,36.7-19.23,51.06-11.72,11.72-31.39,22.33-56.59,22.33Zm38.24-32.5h7.73c9.29,0,22.33-.88,32.28-10.6,4.86-4.65,11.27-13.93,11.27-30.29,0-13.7-4.2-25.42-11.5-32.27-9.06-8.4-21-9.28-30.5-9.28h-9.28Z"/><path class="cls-2" d="M1274.47,35.77h-45.54V60.3H1272V92.8h-43.11v25.41h45.54v32.5h-83.78V3.27h83.78Z"/></g></g></g></svg>